<?xml version="1.0" encoding="utf-8"?>
<!-- Generator: Adobe Illustrator 25.0.1, SVG Export Plug-In . SVG Version: 6.00 Build 0)  -->
<svg version="1.1" id="Camada_1" xmlns="http://www.w3.org/2000/svg" xmlns:xlink="http://www.w3.org/1999/xlink" x="0px" y="0px"
	 viewBox="0 0 679 63" style="enable-background:new 0 0 679 63;" xml:space="preserve">
<style type="text/css">
	.st0{fill:#FFFFFF;}
	.st1{fill:#E3151E;}
	.st2{fill:#FF161F;}
	.st3{fill:#F6F6F7;}
	.st4{fill:#12100B;}
</style>
<g>
	<g>
		<path d="M515.38,18.15c-0.6-0.49-1.2-0.84-1.79-1.08c-0.6-0.23-1.18-0.35-1.74-0.35c-0.71,0-1.29,0.17-1.74,0.5
			c-0.45,0.34-0.67,0.77-0.67,1.32c0,0.37,0.11,0.68,0.34,0.92c0.22,0.24,0.52,0.45,0.88,0.63c0.36,0.18,0.77,0.33,1.23,0.46
			c0.46,0.13,0.91,0.27,1.36,0.42c1.79,0.6,3.1,1.4,3.93,2.39c0.83,1,1.25,2.3,1.25,3.91c0,1.08-0.18,2.06-0.55,2.94
			c-0.36,0.88-0.9,1.63-1.6,2.25c-0.7,0.63-1.56,1.11-2.58,1.46c-1.02,0.35-2.17,0.52-3.46,0.52c-2.67,0-5.14-0.79-7.42-2.38
			l2.35-4.42c0.82,0.73,1.63,1.27,2.44,1.62c0.8,0.35,1.6,0.53,2.38,0.53c0.9,0,1.56-0.21,2-0.62c0.44-0.41,0.66-0.88,0.66-1.4
			c0-0.32-0.06-0.59-0.17-0.83c-0.11-0.23-0.3-0.45-0.56-0.64c-0.26-0.2-0.6-0.38-1.02-0.55c-0.42-0.17-0.93-0.35-1.53-0.56
			c-0.71-0.22-1.4-0.47-2.09-0.74c-0.68-0.27-1.29-0.63-1.82-1.08c-0.53-0.45-0.96-1.01-1.29-1.69c-0.33-0.68-0.49-1.54-0.49-2.59
			c0-1.05,0.17-1.99,0.52-2.84c0.35-0.85,0.83-1.58,1.46-2.18c0.63-0.61,1.39-1.08,2.3-1.41c0.91-0.34,1.92-0.5,3.04-0.5
			c1.05,0,2.14,0.14,3.28,0.43c1.14,0.29,2.23,0.71,3.28,1.27L515.38,18.15z"/>
		<path d="M533.03,30.2h-7.84l-1.26,3.67h-5.85l8.04-21.12h5.99l8.04,21.12h-5.85L533.03,30.2z M522.97,10.54
			c0-1.38,0.32-2.48,0.95-3.29c0.63-0.81,1.45-1.22,2.44-1.22c0.39,0,0.83,0.06,1.32,0.18c0.49,0.12,0.97,0.25,1.44,0.39
			c0.48,0.14,0.91,0.27,1.32,0.38c0.4,0.11,0.72,0.17,0.97,0.17c0.6,0,1-0.38,1.2-1.15h2.77c-0.19,1.68-0.59,2.86-1.22,3.53
			c-0.63,0.67-1.47,1.01-2.53,1.01c-0.52,0-1.04-0.06-1.54-0.18c-0.5-0.12-0.98-0.25-1.43-0.39c-0.45-0.14-0.85-0.27-1.2-0.39
			c-0.35-0.12-0.65-0.18-0.9-0.18c-0.21,0-0.38,0.07-0.53,0.22c-0.15,0.15-0.29,0.46-0.42,0.92H522.97z M531.57,26.02l-2.46-7.03
			l-2.46,7.03H531.57z"/>
		<path d="M538.85,23.31c0-1.57,0.29-3.03,0.87-4.38c0.58-1.35,1.38-2.53,2.41-3.54c1.03-1.01,2.25-1.8,3.68-2.37
			c1.43-0.57,3-0.85,4.72-0.85c1.7,0,3.27,0.28,4.7,0.85c1.44,0.57,2.67,1.36,3.71,2.37s1.84,2.19,2.42,3.54
			c0.58,1.35,0.87,2.81,0.87,4.38c0,1.57-0.29,3.03-0.87,4.38c-0.58,1.35-1.39,2.53-2.42,3.54c-1.04,1.01-2.27,1.8-3.71,2.37
			c-1.44,0.57-3.01,0.85-4.7,0.85c-1.72,0-3.29-0.28-4.72-0.85c-1.43-0.57-2.66-1.36-3.68-2.37c-1.03-1.01-1.83-2.19-2.41-3.54
			C539.14,26.34,538.85,24.88,538.85,23.31z M544.59,23.31c0,0.84,0.16,1.62,0.48,2.32c0.32,0.71,0.75,1.33,1.29,1.85
			c0.54,0.52,1.17,0.93,1.89,1.22c0.72,0.29,1.48,0.43,2.28,0.43c0.8,0,1.56-0.14,2.28-0.43c0.72-0.29,1.35-0.7,1.9-1.22
			c0.55-0.52,0.98-1.14,1.3-1.85c0.32-0.71,0.48-1.48,0.48-2.32c0-0.84-0.16-1.61-0.48-2.32c-0.32-0.71-0.75-1.33-1.3-1.85
			c-0.55-0.52-1.19-0.93-1.9-1.22c-0.72-0.29-1.48-0.43-2.28-0.43c-0.8,0-1.56,0.14-2.28,0.43c-0.72,0.29-1.35,0.7-1.89,1.22
			c-0.54,0.52-0.97,1.14-1.29,1.85C544.75,21.69,544.59,22.47,544.59,23.31z"/>
	</g>
</g>
<g>
	<g>
		<path d="M576.28,33.87h-5.49V12.75h8.74c2.37,0,4.19,0.62,5.45,1.85c1.26,1.23,1.89,2.97,1.89,5.21c0,2.24-0.63,3.98-1.89,5.21
			c-1.26,1.23-3.08,1.85-5.45,1.85h-3.25V33.87z M576.28,22.44h1.82c2.02,0,3.02-0.88,3.02-2.63c0-1.75-1.01-2.63-3.02-2.63h-1.82
			V22.44z"/>
		<path d="M599.39,30.2h-7.84l-1.26,3.67h-5.85l8.04-21.12h5.99l8.04,21.12h-5.85L599.39,30.2z M597.93,26.02l-2.46-7.03L593,26.02
			H597.93z"/>
		<path d="M611.65,12.75v11.48c0,0.62,0.02,1.25,0.07,1.89c0.05,0.64,0.19,1.23,0.42,1.75c0.23,0.52,0.6,0.95,1.11,1.27
			c0.5,0.33,1.21,0.49,2.13,0.49c0.91,0,1.62-0.16,2.11-0.49c0.49-0.33,0.86-0.75,1.11-1.27c0.24-0.52,0.39-1.11,0.43-1.75
			c0.05-0.64,0.07-1.27,0.07-1.89V12.75h5.46v12.24c0,3.29-0.75,5.69-2.25,7.2c-1.5,1.51-3.81,2.27-6.93,2.27
			c-3.12,0-5.43-0.76-6.95-2.27c-1.51-1.51-2.27-3.91-2.27-7.2V12.75H611.65z"/>
		<path d="M632.35,12.75v16.47h6.58v4.65h-12.07V12.75H632.35z"/>
		<path d="M639.1,23.31c0-1.57,0.29-3.03,0.87-4.38c0.58-1.35,1.38-2.53,2.41-3.54c1.03-1.01,2.25-1.8,3.68-2.37
			c1.43-0.57,3-0.85,4.72-0.85c1.7,0,3.27,0.28,4.7,0.85c1.44,0.57,2.67,1.36,3.71,2.37c1.04,1.01,1.84,2.19,2.42,3.54
			c0.58,1.35,0.87,2.81,0.87,4.38c0,1.57-0.29,3.03-0.87,4.38c-0.58,1.35-1.39,2.53-2.42,3.54c-1.04,1.01-2.27,1.8-3.71,2.37
			c-1.44,0.57-3.01,0.85-4.7,0.85c-1.72,0-3.29-0.28-4.72-0.85c-1.43-0.57-2.66-1.36-3.68-2.37c-1.03-1.01-1.83-2.19-2.41-3.54
			C639.39,26.34,639.1,24.88,639.1,23.31z M644.84,23.31c0,0.84,0.16,1.62,0.48,2.32c0.32,0.71,0.75,1.33,1.29,1.85
			c0.54,0.52,1.17,0.93,1.89,1.22c0.72,0.29,1.48,0.43,2.28,0.43c0.8,0,1.56-0.14,2.28-0.43c0.72-0.29,1.35-0.7,1.9-1.22
			c0.55-0.52,0.98-1.14,1.3-1.85c0.32-0.71,0.48-1.48,0.48-2.32c0-0.84-0.16-1.61-0.48-2.32c-0.32-0.71-0.75-1.33-1.3-1.85
			c-0.55-0.52-1.19-0.93-1.9-1.22c-0.72-0.29-1.48-0.43-2.28-0.43c-0.8,0-1.56,0.14-2.28,0.43c-0.72,0.29-1.35,0.7-1.89,1.22
			c-0.54,0.52-0.97,1.14-1.29,1.85C645,21.69,644.84,22.47,644.84,23.31z"/>
	</g>
</g>
<g>
	<g>
		<path d="M508.03,46.1h4.83c0,1.85-0.38,3.17-1.5,4.21c-0.98,0.91-2.1,1.18-3.3,1.18c-1.68,0-2.83-0.62-3.59-1.39
			c-0.7-0.7-1.35-1.84-1.35-3.38c0-1.49,0.59-2.71,1.4-3.51c0.77-0.77,1.98-1.38,3.63-1.38c0.87,0,1.81,0.2,2.53,0.63
			c0.73,0.45,1.33,1.19,1.67,1.92l-2.32,0.95c-0.17-0.44-0.43-0.74-0.67-0.94c-0.41-0.34-0.84-0.46-1.3-0.46
			c-0.58,0-1.16,0.21-1.6,0.65c-0.55,0.55-0.81,1.42-0.81,2.15c0,0.86,0.31,1.56,0.74,2.02c0.45,0.48,1,0.72,1.71,0.72
			c0.42,0,0.91-0.07,1.35-0.44c0.22-0.18,0.49-0.52,0.58-1.04h-1.99V46.1z"/>
		<path d="M523.6,50.22c-0.95,0.91-2.3,1.39-3.69,1.39s-2.74-0.48-3.69-1.39c-1-0.95-1.47-2.26-1.47-3.49
			c0-1.25,0.48-2.57,1.47-3.51c0.95-0.91,2.3-1.39,3.69-1.39s2.74,0.48,3.69,1.39c1,0.94,1.47,2.26,1.47,3.51
			C525.08,47.96,524.6,49.27,523.6,50.22z M518.02,44.93c-0.51,0.49-0.74,1.18-0.74,1.84c0,0.83,0.39,1.4,0.74,1.74
			c0.45,0.44,1.08,0.74,1.89,0.74c0.83,0,1.45-0.29,1.88-0.73c0.43-0.44,0.76-1.08,0.76-1.8c0-0.73-0.32-1.38-0.76-1.8
			c-0.52-0.49-1.23-0.74-1.88-0.74C519.24,44.19,518.52,44.43,518.02,44.93z"/>
		<path d="M528.51,42.04l2.25,5.7l2.27-5.7h2.64l-3.99,9.36h-1.89l-3.93-9.36H528.51z"/>
		<path d="M542.8,44.1h-2.89v1.56h2.74v2.06h-2.74v1.61h2.89v2.06h-5.32v-9.36h5.32V44.1z"/>
		<path d="M548.89,42.04c0.7,0,1.6,0.11,2.29,0.83c0.53,0.55,0.8,1.36,0.8,2.1c0,0.8-0.28,1.5-0.74,1.95
			c-0.36,0.35-0.86,0.56-1.29,0.65l2.93,3.83h-3.02l-2.33-3.59v3.59h-2.43v-9.36H548.89z M547.53,46.24h0.46
			c0.36,0,0.88-0.1,1.18-0.38c0.18-0.18,0.31-0.49,0.31-0.79c0-0.28-0.11-0.59-0.32-0.79c-0.22-0.22-0.63-0.36-1.16-0.36h-0.46
			V46.24z"/>
		<path d="M554.5,51.4v-9.36h2.43l4.48,5.73v-5.73h2.43v9.36h-2.43l-4.48-5.73v5.73H554.5z"/>
		<path d="M574.46,50.22c-0.95,0.91-2.3,1.39-3.69,1.39c-1.39,0-2.74-0.48-3.69-1.39c-1-0.95-1.47-2.26-1.47-3.49
			c0-1.25,0.48-2.57,1.47-3.51c0.95-0.91,2.3-1.39,3.69-1.39c1.39,0,2.74,0.48,3.69,1.39c1,0.94,1.47,2.26,1.47,3.51
			C575.93,47.96,575.45,49.27,574.46,50.22z M568.87,44.93c-0.51,0.49-0.74,1.18-0.74,1.84c0,0.83,0.39,1.4,0.74,1.74
			c0.45,0.44,1.08,0.74,1.89,0.74c0.83,0,1.45-0.29,1.88-0.73c0.43-0.44,0.76-1.08,0.76-1.8c0-0.73-0.32-1.38-0.76-1.8
			c-0.52-0.49-1.23-0.74-1.88-0.74C570.09,44.19,569.38,44.43,568.87,44.93z"/>
		<path d="M582.29,51.4v-9.36h3.19c0.94,0,2.51,0.13,3.72,1.29c1.09,1.05,1.3,2.4,1.3,3.41c0,1.23-0.31,2.33-1.22,3.24
			c-0.74,0.74-1.99,1.42-3.59,1.42H582.29z M584.71,49.34h0.49c0.59,0,1.42-0.06,2.05-0.67c0.31-0.29,0.72-0.88,0.72-1.92
			c0-0.87-0.27-1.61-0.73-2.05c-0.58-0.53-1.33-0.59-1.94-0.59h-0.59V49.34z"/>
		<path d="M601.26,50.22c-0.95,0.91-2.3,1.39-3.69,1.39c-1.39,0-2.74-0.48-3.69-1.39c-1-0.95-1.47-2.26-1.47-3.49
			c0-1.25,0.48-2.57,1.47-3.51c0.95-0.91,2.3-1.39,3.69-1.39c1.39,0,2.74,0.48,3.69,1.39c1,0.94,1.47,2.26,1.47,3.51
			C602.73,47.96,602.26,49.27,601.26,50.22z M595.67,44.93c-0.51,0.49-0.74,1.18-0.74,1.84c0,0.83,0.39,1.4,0.74,1.74
			c0.45,0.44,1.08,0.74,1.89,0.74c0.83,0,1.45-0.29,1.88-0.73c0.43-0.44,0.76-1.08,0.76-1.8c0-0.73-0.32-1.38-0.76-1.8
			c-0.52-0.49-1.23-0.74-1.88-0.74C596.9,44.19,596.18,44.43,595.67,44.93z"/>
		<path d="M613.43,44.1h-2.89v1.56h2.74v2.06h-2.74v1.61h2.89v2.06h-5.32v-9.36h5.32V44.1z"/>
		<path d="M616.54,48.59c0.52,0.49,1.3,0.95,2.15,0.95c0.49,0,0.79-0.15,0.94-0.32c0.14-0.14,0.24-0.35,0.24-0.59
			c0-0.18-0.07-0.39-0.27-0.56c-0.24-0.21-0.6-0.31-1.21-0.49l-0.63-0.2c-0.39-0.13-0.97-0.34-1.35-0.76
			c-0.48-0.52-0.53-1.18-0.53-1.66c0-1.15,0.45-1.85,0.86-2.26c0.48-0.48,1.26-0.88,2.4-0.88c0.93,0,2.01,0.29,2.89,0.76l-0.97,1.89
			c-0.73-0.58-1.28-0.63-1.6-0.63c-0.24,0-0.56,0.06-0.8,0.28c-0.14,0.14-0.24,0.29-0.24,0.51c0,0.17,0.03,0.29,0.13,0.42
			c0.07,0.08,0.24,0.25,0.81,0.42l0.74,0.22c0.59,0.18,1.21,0.39,1.7,0.93c0.48,0.51,0.6,1.02,0.6,1.67c0,0.86-0.21,1.68-0.88,2.36
			c-0.8,0.8-1.77,0.95-2.76,0.95c-0.59,0-1.15-0.06-1.84-0.31c-0.15-0.06-0.74-0.28-1.42-0.74L616.54,48.59z"/>
		<path d="M627.88,44.1v7.3h-2.43v-7.3h-1.99v-2.06h6.41v2.06H627.88z"/>
		<path d="M636.78,49.83h-3.4l-0.63,1.57h-2.57l3.59-9.36h2.65l3.52,9.36h-2.6L636.78,49.83z M636.13,47.98l-1.05-3.03l-1.02,3.03
			H636.13z"/>
		<path d="M642,51.4v-9.36h3.19c0.94,0,2.51,0.13,3.72,1.29c1.09,1.05,1.3,2.4,1.3,3.41c0,1.23-0.31,2.33-1.22,3.24
			c-0.74,0.74-1.99,1.42-3.59,1.42H642z M644.42,49.34h0.49c0.59,0,1.42-0.06,2.05-0.67c0.31-0.29,0.72-0.88,0.72-1.92
			c0-0.87-0.27-1.61-0.73-2.05c-0.58-0.53-1.33-0.59-1.94-0.59h-0.59V49.34z"/>
		<path d="M661.01,50.22c-0.95,0.91-2.3,1.39-3.69,1.39c-1.39,0-2.74-0.48-3.69-1.39c-1-0.95-1.47-2.26-1.47-3.49
			c0-1.25,0.48-2.57,1.47-3.51c0.95-0.91,2.3-1.39,3.69-1.39c1.39,0,2.74,0.48,3.69,1.39c1,0.94,1.47,2.26,1.47,3.51
			C662.48,47.96,662.01,49.27,661.01,50.22z M655.43,44.93c-0.51,0.49-0.74,1.18-0.74,1.84c0,0.83,0.39,1.4,0.74,1.74
			c0.45,0.44,1.08,0.74,1.89,0.74c0.83,0,1.45-0.29,1.88-0.73c0.43-0.44,0.76-1.08,0.76-1.8c0-0.73-0.32-1.38-0.76-1.8
			c-0.52-0.49-1.23-0.74-1.88-0.74C656.65,44.19,655.93,44.43,655.43,44.93z"/>
	</g>
</g>
<g>
	<path class="st2" d="M482.29,13.38L482.29,13.38h-9.57h-9.57h-4.78c-2.64,0-4.78,2.14-4.78,4.78v0v4.78v9.57v9.57v9.57l19.14-9.57
		h9.57l0,0c5.28,0,9.57-4.28,9.57-9.57v-9.57C491.86,17.66,487.57,13.38,482.29,13.38z"/>
	<path d="M439.23,13.38h-9.57h-9.57l0,0c-5.28,0-9.57,4.28-9.57,9.57v0c0,5.28,4.28,9.57,9.57,9.57h-9.57v9.57v9.57h9.57h9.57h9.57
		c5.28,0,9.57-4.28,9.57-9.57v0v0c0-5.28-4.28-9.57-9.57-9.57h9.57v-9.57v-9.57H439.23z"/>
</g>
<g>
	<g>
		<path d="M11.98,36.66h5.52c0.98,0,1.89,0.2,2.75,0.59c0.86,0.39,1.6,0.92,2.25,1.57c0.64,0.65,1.14,1.41,1.51,2.28
			c0.37,0.87,0.55,1.78,0.55,2.73c0,0.94-0.18,1.84-0.54,2.71c-0.36,0.87-0.86,1.63-1.5,2.29c-0.64,0.66-1.39,1.19-2.25,1.58
			c-0.86,0.39-1.78,0.59-2.77,0.59h-5.52V36.66z M15.71,47.85h0.86c0.65,0,1.22-0.1,1.73-0.3c0.51-0.2,0.94-0.48,1.28-0.84
			c0.35-0.35,0.62-0.78,0.8-1.27c0.18-0.49,0.28-1.02,0.28-1.61c0-0.57-0.1-1.1-0.29-1.6c-0.19-0.49-0.46-0.92-0.81-1.27
			c-0.35-0.35-0.78-0.63-1.28-0.84c-0.51-0.2-1.08-0.3-1.71-0.3h-0.86V47.85z"/>
		<path d="M29.72,46.71c0,1.48,0.7,2.23,2.09,2.23c0.75,0,1.31-0.3,1.69-0.91h3.33c-0.67,2.23-2.35,3.35-5.04,3.35
			c-0.82,0-1.58-0.12-2.26-0.37c-0.68-0.25-1.27-0.6-1.76-1.06c-0.49-0.46-0.87-1-1.13-1.64c-0.27-0.63-0.4-1.34-0.4-2.13
			c0-0.81,0.13-1.54,0.38-2.2c0.25-0.65,0.62-1.21,1.08-1.67c0.47-0.46,1.04-0.81,1.7-1.06c0.67-0.25,1.42-0.37,2.25-0.37
			c0.82,0,1.57,0.12,2.23,0.37c0.66,0.25,1.22,0.61,1.67,1.08c0.46,0.47,0.81,1.04,1.05,1.72c0.24,0.68,0.36,1.44,0.36,2.29v0.36
			H29.72z M33.75,44.71c-0.11-0.48-0.35-0.87-0.7-1.16c-0.36-0.29-0.79-0.44-1.29-0.44c-0.53,0-0.97,0.14-1.3,0.42
			c-0.34,0.28-0.55,0.67-0.64,1.18H33.75z"/>
		<path d="M45.4,43.76c-0.63-0.33-1.26-0.49-1.86-0.49c-0.32,0-0.57,0.06-0.77,0.19c-0.2,0.13-0.3,0.3-0.3,0.51
			c0,0.11,0.02,0.21,0.05,0.28c0.03,0.07,0.1,0.14,0.21,0.2c0.11,0.06,0.27,0.12,0.48,0.17c0.21,0.05,0.49,0.11,0.83,0.19
			c0.95,0.19,1.66,0.53,2.13,1.02c0.47,0.49,0.7,1.11,0.7,1.87c0,0.57-0.11,1.08-0.34,1.54c-0.23,0.46-0.55,0.84-0.95,1.15
			c-0.41,0.31-0.89,0.55-1.47,0.72c-0.57,0.17-1.2,0.26-1.88,0.26c-1.32,0-2.62-0.37-3.9-1.12l1.26-2.44
			c0.96,0.66,1.88,0.99,2.74,0.99c0.32,0,0.58-0.07,0.78-0.21c0.2-0.14,0.3-0.32,0.3-0.53c0-0.13-0.02-0.23-0.05-0.31
			c-0.03-0.08-0.1-0.16-0.2-0.23c-0.1-0.07-0.25-0.13-0.45-0.19c-0.2-0.06-0.45-0.12-0.77-0.18c-1.07-0.22-1.81-0.54-2.24-0.96
			c-0.43-0.42-0.64-1.01-0.64-1.76c0-0.55,0.1-1.04,0.3-1.47c0.2-0.44,0.49-0.81,0.88-1.11c0.38-0.3,0.84-0.54,1.38-0.7
			c0.54-0.16,1.14-0.25,1.8-0.25c1.08,0,2.12,0.21,3.14,0.63L45.4,43.76z"/>
		<path d="M51.71,46.71c0,1.48,0.7,2.23,2.09,2.23c0.75,0,1.31-0.3,1.69-0.91h3.33c-0.67,2.23-2.35,3.35-5.04,3.35
			c-0.82,0-1.58-0.12-2.26-0.37c-0.68-0.25-1.27-0.6-1.76-1.06c-0.49-0.46-0.87-1-1.13-1.64c-0.27-0.63-0.4-1.34-0.4-2.13
			c0-0.81,0.13-1.54,0.38-2.2c0.25-0.65,0.62-1.21,1.08-1.67c0.47-0.46,1.04-0.81,1.7-1.06c0.67-0.25,1.42-0.37,2.25-0.37
			c0.82,0,1.57,0.12,2.23,0.37c0.66,0.25,1.22,0.61,1.67,1.08c0.46,0.47,0.81,1.04,1.05,1.72c0.24,0.68,0.36,1.44,0.36,2.29v0.36
			H51.71z M55.75,44.71c-0.11-0.48-0.35-0.87-0.7-1.16c-0.36-0.29-0.79-0.44-1.29-0.44c-0.53,0-0.97,0.14-1.3,0.42
			c-0.34,0.28-0.55,0.67-0.64,1.18H55.75z"/>
		<path d="M60.92,41.24h3.44v1.24c0.47-0.57,0.94-0.95,1.43-1.15c0.48-0.2,1.05-0.29,1.69-0.29c0.68,0,1.27,0.11,1.76,0.33
			c0.49,0.22,0.9,0.54,1.25,0.94c0.28,0.33,0.47,0.7,0.57,1.1c0.1,0.41,0.15,0.87,0.15,1.39v6.2h-3.44v-4.93
			c0-0.48-0.04-0.87-0.1-1.17c-0.07-0.3-0.19-0.54-0.37-0.71c-0.15-0.15-0.32-0.26-0.51-0.32c-0.19-0.06-0.39-0.1-0.61-0.1
			c-0.58,0-1.03,0.17-1.34,0.52c-0.31,0.35-0.47,0.85-0.47,1.49v5.21h-3.44V41.24z"/>
		<path d="M75.92,41.24l2.32,5l2.36-5h3.84l-5.08,9.76h-2.3l-5.02-9.76H75.92z"/>
		<path d="M84.75,46.04c0-0.72,0.15-1.4,0.44-2.03c0.29-0.63,0.7-1.17,1.22-1.64c0.52-0.46,1.14-0.83,1.86-1.09
			c0.72-0.27,1.5-0.4,2.35-0.4c0.84,0,1.61,0.13,2.33,0.39c0.72,0.26,1.34,0.62,1.86,1.08c0.53,0.46,0.94,1.02,1.23,1.66
			c0.29,0.64,0.44,1.35,0.44,2.12c0,0.77-0.15,1.48-0.45,2.12c-0.3,0.64-0.71,1.19-1.23,1.66c-0.52,0.46-1.15,0.82-1.87,1.07
			c-0.73,0.25-1.52,0.38-2.37,0.38c-0.84,0-1.61-0.13-2.32-0.38c-0.71-0.25-1.32-0.62-1.84-1.08c-0.51-0.47-0.92-1.03-1.21-1.68
			C84.89,47.56,84.75,46.84,84.75,46.04z M88.38,46.08c0,0.33,0.06,0.63,0.18,0.9c0.12,0.27,0.28,0.51,0.48,0.71
			c0.2,0.2,0.43,0.36,0.7,0.48c0.27,0.11,0.56,0.17,0.87,0.17c0.3,0,0.59-0.06,0.87-0.17c0.27-0.11,0.51-0.27,0.7-0.48
			c0.2-0.2,0.36-0.44,0.48-0.71c0.12-0.27,0.18-0.57,0.18-0.88c0-0.3-0.06-0.59-0.18-0.87c-0.12-0.27-0.28-0.51-0.48-0.71
			c-0.2-0.2-0.43-0.36-0.7-0.48c-0.27-0.11-0.56-0.17-0.87-0.17c-0.3,0-0.59,0.06-0.87,0.17c-0.27,0.11-0.51,0.27-0.7,0.48
			c-0.2,0.2-0.36,0.44-0.48,0.7C88.44,45.49,88.38,45.77,88.38,46.08z"/>
		<path d="M101.89,35.21v15.79h-3.44V35.21H101.89z"/>
		<path d="M107.14,41.24l2.32,5l2.36-5h3.84l-5.08,9.76h-2.3l-5.02-9.76H107.14z"/>
		<path d="M116.62,37.5c0-0.27,0.05-0.52,0.15-0.75c0.1-0.23,0.24-0.44,0.42-0.62c0.18-0.18,0.38-0.32,0.62-0.42
			c0.23-0.1,0.49-0.15,0.75-0.15s0.52,0.05,0.75,0.15c0.23,0.1,0.44,0.24,0.62,0.42c0.18,0.18,0.32,0.38,0.42,0.62
			c0.1,0.23,0.15,0.49,0.15,0.75c0,0.27-0.05,0.52-0.15,0.75c-0.1,0.23-0.24,0.44-0.42,0.62c-0.18,0.18-0.38,0.32-0.62,0.42
			c-0.23,0.1-0.49,0.15-0.75,0.15s-0.52-0.05-0.75-0.15c-0.23-0.1-0.44-0.24-0.62-0.42c-0.18-0.18-0.32-0.38-0.42-0.62
			C116.67,38.01,116.62,37.76,116.62,37.5z M120.29,41.24v9.76h-3.44v-9.76H120.29z"/>
		<path d="M122.65,41.24h3.44v1.2c0.94-0.9,1.99-1.35,3.16-1.35c1.45,0,2.55,0.61,3.31,1.83c0.77-1.23,1.88-1.85,3.31-1.85
			c0.46,0,0.89,0.07,1.29,0.2c0.41,0.13,0.75,0.34,1.05,0.63c0.29,0.29,0.52,0.66,0.69,1.11c0.17,0.46,0.26,1.01,0.26,1.66v6.34
			h-3.44v-4.81c0-0.49-0.03-0.9-0.1-1.22c-0.07-0.32-0.17-0.56-0.3-0.74c-0.13-0.18-0.29-0.3-0.47-0.36
			c-0.18-0.06-0.37-0.1-0.57-0.1c-1.1,0-1.66,0.81-1.66,2.42v4.81h-3.44v-4.81c0-0.49-0.03-0.9-0.1-1.23
			c-0.06-0.32-0.16-0.58-0.28-0.77c-0.12-0.19-0.28-0.32-0.47-0.39c-0.19-0.07-0.41-0.1-0.67-0.1c-0.22,0-0.42,0.03-0.61,0.1
			c-0.19,0.06-0.36,0.19-0.5,0.37c-0.15,0.18-0.26,0.44-0.34,0.76c-0.08,0.32-0.12,0.75-0.12,1.27v4.81h-3.44V41.24z"/>
		<path d="M144.63,46.71c0,1.48,0.7,2.23,2.09,2.23c0.75,0,1.31-0.3,1.69-0.91h3.33c-0.67,2.23-2.35,3.35-5.04,3.35
			c-0.82,0-1.58-0.12-2.26-0.37c-0.68-0.25-1.27-0.6-1.76-1.06c-0.49-0.46-0.87-1-1.13-1.64c-0.27-0.63-0.4-1.34-0.4-2.13
			c0-0.81,0.13-1.54,0.38-2.2c0.25-0.65,0.62-1.21,1.08-1.67c0.47-0.46,1.04-0.81,1.7-1.06c0.67-0.25,1.42-0.37,2.25-0.37
			c0.82,0,1.57,0.12,2.23,0.37c0.66,0.25,1.22,0.61,1.67,1.08c0.46,0.47,0.81,1.04,1.05,1.72c0.24,0.68,0.36,1.44,0.36,2.29v0.36
			H144.63z M148.66,44.71c-0.11-0.48-0.35-0.87-0.7-1.16c-0.36-0.29-0.79-0.44-1.29-0.44c-0.53,0-0.97,0.14-1.3,0.42
			c-0.34,0.28-0.55,0.67-0.64,1.18H148.66z"/>
		<path d="M153.84,41.24h3.44v1.24c0.47-0.57,0.94-0.95,1.43-1.15c0.48-0.2,1.05-0.29,1.69-0.29c0.68,0,1.27,0.11,1.76,0.33
			c0.49,0.22,0.9,0.54,1.25,0.94c0.28,0.33,0.47,0.7,0.57,1.1c0.1,0.41,0.15,0.87,0.15,1.39v6.2h-3.44v-4.93
			c0-0.48-0.04-0.87-0.1-1.17c-0.07-0.3-0.19-0.54-0.37-0.71c-0.15-0.15-0.32-0.26-0.51-0.32c-0.19-0.06-0.39-0.1-0.61-0.1
			c-0.58,0-1.03,0.17-1.34,0.52c-0.31,0.35-0.47,0.85-0.47,1.49v5.21h-3.44V41.24z"/>
		<path d="M170.31,44.12v6.89h-3.44v-6.89h-1.14v-2.87h1.14v-2.93h3.44v2.93h1.96v2.87H170.31z"/>
		<path d="M173.36,46.04c0-0.72,0.15-1.4,0.44-2.03c0.29-0.63,0.7-1.17,1.22-1.64c0.52-0.46,1.14-0.83,1.86-1.09
			c0.72-0.27,1.5-0.4,2.35-0.4c0.84,0,1.61,0.13,2.33,0.39c0.72,0.26,1.34,0.62,1.86,1.08c0.53,0.46,0.94,1.02,1.23,1.66
			c0.29,0.64,0.44,1.35,0.44,2.12c0,0.77-0.15,1.48-0.45,2.12c-0.3,0.64-0.71,1.19-1.23,1.66c-0.52,0.46-1.15,0.82-1.87,1.07
			c-0.73,0.25-1.52,0.38-2.37,0.38c-0.84,0-1.61-0.13-2.32-0.38c-0.71-0.25-1.32-0.62-1.84-1.08c-0.51-0.47-0.92-1.03-1.21-1.68
			C173.5,47.56,173.36,46.84,173.36,46.04z M176.99,46.08c0,0.33,0.06,0.63,0.18,0.9c0.12,0.27,0.28,0.51,0.48,0.71
			c0.2,0.2,0.43,0.36,0.7,0.48c0.27,0.11,0.56,0.17,0.87,0.17c0.3,0,0.59-0.06,0.87-0.17c0.27-0.11,0.51-0.27,0.7-0.48
			c0.2-0.2,0.36-0.44,0.48-0.71c0.12-0.27,0.18-0.57,0.18-0.88c0-0.3-0.06-0.59-0.18-0.87c-0.12-0.27-0.28-0.51-0.48-0.71
			c-0.2-0.2-0.43-0.36-0.7-0.48c-0.27-0.11-0.56-0.17-0.87-0.17c-0.3,0-0.59,0.06-0.87,0.17c-0.27,0.11-0.51,0.27-0.7,0.48
			c-0.2,0.2-0.36,0.44-0.48,0.7C177.05,45.49,176.99,45.77,176.99,46.08z"/>
		<path d="M197.58,36.66v7.8c0,0.42,0.02,0.85,0.05,1.28c0.03,0.44,0.13,0.83,0.29,1.19c0.16,0.36,0.41,0.64,0.75,0.87
			c0.34,0.22,0.82,0.33,1.45,0.33s1.1-0.11,1.44-0.33c0.34-0.22,0.59-0.51,0.75-0.87c0.16-0.36,0.26-0.75,0.29-1.19
			c0.03-0.44,0.05-0.87,0.05-1.28v-7.8h3.71v8.32c0,2.23-0.51,3.86-1.53,4.89c-1.02,1.03-2.59,1.54-4.71,1.54s-3.69-0.51-4.72-1.54
			c-1.03-1.03-1.54-2.66-1.54-4.89v-8.32H197.58z"/>
		<path d="M209.24,41.24h3.44v1.6c0.37-0.58,0.82-1.03,1.35-1.34c0.53-0.31,1.15-0.47,1.86-0.47c0.09,0,0.19,0,0.29,0
			c0.11,0,0.23,0.01,0.37,0.04v3.29c-0.46-0.23-0.95-0.34-1.48-0.34c-0.8,0-1.4,0.24-1.8,0.71c-0.4,0.48-0.6,1.17-0.6,2.08v4.19
			h-3.44V41.24z"/>
		<path d="M221.54,35.21v7c0.81-0.85,1.83-1.27,3.04-1.27c0.72,0,1.39,0.14,1.99,0.41c0.6,0.27,1.12,0.64,1.54,1.1
			c0.42,0.46,0.76,1.01,1,1.64c0.24,0.63,0.36,1.3,0.36,2.01c0,0.72-0.12,1.4-0.37,2.04c-0.25,0.63-0.59,1.19-1.04,1.66
			c-0.44,0.47-0.97,0.84-1.57,1.11c-0.6,0.27-1.25,0.41-1.95,0.41c-1.27,0-2.27-0.46-3.01-1.39v1.08h-3.44V35.21H221.54z
			 M225.87,46.15c0-0.3-0.06-0.59-0.17-0.87c-0.11-0.27-0.27-0.51-0.48-0.71c-0.2-0.2-0.44-0.36-0.7-0.49
			c-0.27-0.12-0.56-0.18-0.88-0.18c-0.3,0-0.59,0.06-0.86,0.17c-0.27,0.11-0.5,0.27-0.69,0.48c-0.2,0.2-0.36,0.44-0.48,0.71
			c-0.12,0.27-0.18,0.56-0.18,0.87c0,0.3,0.06,0.59,0.17,0.86c0.11,0.27,0.27,0.5,0.48,0.69c0.2,0.2,0.44,0.36,0.71,0.48
			c0.27,0.12,0.56,0.18,0.87,0.18c0.3,0,0.59-0.06,0.86-0.17c0.27-0.11,0.5-0.27,0.69-0.48c0.2-0.2,0.35-0.44,0.48-0.7
			C225.81,46.72,225.87,46.45,225.87,46.15z"/>
		<path d="M238.97,41.24h3.46v9.76h-3.46v-1.08c-0.74,0.93-1.73,1.39-2.99,1.39c-0.71,0-1.36-0.13-1.96-0.39
			c-0.6-0.26-1.12-0.62-1.56-1.09c-0.44-0.47-0.79-1.02-1.04-1.66c-0.25-0.63-0.37-1.33-0.37-2.07c0-0.7,0.12-1.36,0.36-1.99
			c0.24-0.63,0.58-1.18,1.01-1.65c0.43-0.47,0.94-0.84,1.54-1.11c0.6-0.27,1.26-0.41,1.98-0.41c1.22,0,2.23,0.43,3.03,1.27V41.24z
			 M234.63,46.1c0,0.32,0.06,0.61,0.17,0.88c0.11,0.27,0.27,0.51,0.47,0.71c0.2,0.2,0.43,0.36,0.7,0.48
			c0.27,0.11,0.57,0.17,0.88,0.17c0.3,0,0.59-0.06,0.87-0.17c0.27-0.11,0.51-0.27,0.7-0.48c0.2-0.2,0.36-0.44,0.48-0.7
			c0.12-0.27,0.18-0.55,0.18-0.86c0-0.3-0.06-0.59-0.18-0.87c-0.12-0.27-0.28-0.51-0.48-0.71c-0.2-0.2-0.43-0.36-0.7-0.48
			c-0.27-0.11-0.56-0.17-0.87-0.17c-0.32,0-0.61,0.06-0.88,0.17c-0.27,0.11-0.51,0.27-0.7,0.48c-0.2,0.2-0.35,0.43-0.47,0.69
			C234.68,45.51,234.63,45.79,234.63,46.1z"/>
		<path d="M244.77,41.24h3.44v1.24c0.47-0.57,0.94-0.95,1.43-1.15c0.48-0.2,1.05-0.29,1.69-0.29c0.68,0,1.27,0.11,1.76,0.33
			c0.49,0.22,0.9,0.54,1.25,0.94c0.28,0.33,0.47,0.7,0.57,1.1c0.1,0.41,0.15,0.87,0.15,1.39v6.2h-3.44v-4.93
			c0-0.48-0.04-0.87-0.1-1.17c-0.07-0.3-0.19-0.54-0.37-0.71c-0.15-0.15-0.32-0.26-0.51-0.32c-0.19-0.06-0.39-0.1-0.61-0.1
			c-0.58,0-1.03,0.17-1.34,0.52c-0.31,0.35-0.47,0.85-0.47,1.49v5.21h-3.44V41.24z"/>
		<path d="M257.02,46.04c0-0.72,0.15-1.4,0.44-2.03c0.29-0.63,0.7-1.17,1.22-1.64c0.52-0.46,1.14-0.83,1.86-1.09
			c0.72-0.27,1.5-0.4,2.35-0.4c0.84,0,1.61,0.13,2.33,0.39c0.72,0.26,1.34,0.62,1.86,1.08c0.53,0.46,0.94,1.02,1.23,1.66
			c0.29,0.64,0.44,1.35,0.44,2.12c0,0.77-0.15,1.48-0.45,2.12c-0.3,0.64-0.71,1.19-1.23,1.66c-0.52,0.46-1.15,0.82-1.87,1.07
			c-0.73,0.25-1.52,0.38-2.37,0.38c-0.84,0-1.61-0.13-2.32-0.38c-0.71-0.25-1.32-0.62-1.84-1.08c-0.51-0.47-0.92-1.03-1.21-1.68
			C257.17,47.56,257.02,46.84,257.02,46.04z M260.66,46.08c0,0.33,0.06,0.63,0.18,0.9c0.12,0.27,0.28,0.51,0.48,0.71
			c0.2,0.2,0.43,0.36,0.7,0.48c0.27,0.11,0.56,0.17,0.87,0.17c0.3,0,0.59-0.06,0.87-0.17c0.27-0.11,0.51-0.27,0.7-0.48
			c0.2-0.2,0.36-0.44,0.48-0.71c0.12-0.27,0.18-0.57,0.18-0.88c0-0.3-0.06-0.59-0.18-0.87c-0.12-0.27-0.28-0.51-0.48-0.71
			c-0.2-0.2-0.43-0.36-0.7-0.48c-0.27-0.11-0.56-0.17-0.87-0.17c-0.3,0-0.59,0.06-0.87,0.17c-0.27,0.11-0.51,0.27-0.7,0.48
			c-0.2,0.2-0.36,0.44-0.48,0.7C260.72,45.49,260.66,45.77,260.66,46.08z"/>
		<path d="M280.29,46.71c0,1.48,0.7,2.23,2.09,2.23c0.75,0,1.31-0.3,1.69-0.91h3.33c-0.67,2.23-2.35,3.35-5.04,3.35
			c-0.82,0-1.58-0.12-2.26-0.37c-0.68-0.25-1.27-0.6-1.76-1.06c-0.49-0.46-0.87-1-1.13-1.64c-0.27-0.63-0.4-1.34-0.4-2.13
			c0-0.81,0.13-1.54,0.38-2.2c0.25-0.65,0.62-1.21,1.08-1.67c0.47-0.46,1.04-0.81,1.7-1.06c0.67-0.25,1.42-0.37,2.25-0.37
			c0.82,0,1.57,0.12,2.23,0.37c0.66,0.25,1.22,0.61,1.67,1.08c0.46,0.47,0.81,1.04,1.05,1.72c0.24,0.68,0.36,1.44,0.36,2.29v0.36
			H280.29z M284.33,44.71c-0.11-0.48-0.35-0.87-0.7-1.16c-0.36-0.29-0.79-0.44-1.29-0.44c-0.53,0-0.97,0.14-1.3,0.42
			c-0.34,0.28-0.55,0.67-0.64,1.18H284.33z"/>
		<path d="M300.03,42.2h5.38v-5.54h3.73v14.35h-3.73v-5.92h-5.38v5.92h-3.73V36.66h3.73V42.2z"/>
		<path d="M319.36,41.24h3.46v9.76h-3.46v-1.08c-0.74,0.93-1.73,1.39-2.99,1.39c-0.71,0-1.36-0.13-1.96-0.39
			c-0.6-0.26-1.12-0.62-1.56-1.09c-0.44-0.47-0.79-1.02-1.04-1.66c-0.25-0.63-0.37-1.33-0.37-2.07c0-0.7,0.12-1.36,0.36-1.99
			c0.24-0.63,0.58-1.18,1.01-1.65c0.43-0.47,0.94-0.84,1.54-1.11c0.6-0.27,1.26-0.41,1.98-0.41c1.22,0,2.23,0.43,3.03,1.27V41.24z
			 M315.02,46.1c0,0.32,0.06,0.61,0.17,0.88c0.11,0.27,0.27,0.51,0.47,0.71c0.2,0.2,0.43,0.36,0.7,0.48
			c0.27,0.11,0.57,0.17,0.88,0.17c0.3,0,0.59-0.06,0.87-0.17c0.27-0.11,0.51-0.27,0.7-0.48c0.2-0.2,0.36-0.44,0.48-0.7
			c0.12-0.27,0.18-0.55,0.18-0.86c0-0.3-0.06-0.59-0.18-0.87c-0.12-0.27-0.28-0.51-0.48-0.71c-0.2-0.2-0.43-0.36-0.7-0.48
			c-0.27-0.11-0.56-0.17-0.87-0.17c-0.32,0-0.61,0.06-0.88,0.17s-0.51,0.27-0.7,0.48c-0.2,0.2-0.35,0.43-0.47,0.69
			C315.08,45.51,315.02,45.79,315.02,46.1z"/>
		<path d="M328.61,35.21v7c0.81-0.85,1.83-1.27,3.04-1.27c0.72,0,1.39,0.14,1.99,0.41c0.6,0.27,1.12,0.64,1.54,1.1
			c0.42,0.46,0.76,1.01,1,1.64c0.24,0.63,0.36,1.3,0.36,2.01c0,0.72-0.12,1.4-0.37,2.04c-0.25,0.63-0.59,1.19-1.04,1.66
			c-0.44,0.47-0.97,0.84-1.57,1.11c-0.6,0.27-1.25,0.41-1.95,0.41c-1.27,0-2.27-0.46-3.01-1.39v1.08h-3.44V35.21H328.61z
			 M332.94,46.15c0-0.3-0.06-0.59-0.17-0.87c-0.11-0.27-0.27-0.51-0.48-0.71c-0.2-0.2-0.44-0.36-0.7-0.49
			c-0.27-0.12-0.56-0.18-0.88-0.18c-0.3,0-0.59,0.06-0.86,0.17c-0.27,0.11-0.5,0.27-0.69,0.48c-0.2,0.2-0.36,0.44-0.48,0.71
			c-0.12,0.27-0.18,0.56-0.18,0.87c0,0.3,0.06,0.59,0.17,0.86c0.11,0.27,0.27,0.5,0.48,0.69c0.2,0.2,0.44,0.36,0.71,0.48
			c0.27,0.12,0.56,0.18,0.87,0.18s0.59-0.06,0.86-0.17c0.27-0.11,0.5-0.27,0.69-0.48c0.2-0.2,0.35-0.44,0.48-0.7
			C332.88,46.72,332.94,46.45,332.94,46.15z"/>
		<path d="M338.27,37.5c0-0.27,0.05-0.52,0.15-0.75c0.1-0.23,0.24-0.44,0.42-0.62c0.18-0.18,0.38-0.32,0.62-0.42
			c0.23-0.1,0.49-0.15,0.75-0.15c0.27,0,0.52,0.05,0.75,0.15c0.23,0.1,0.44,0.24,0.62,0.42c0.18,0.18,0.32,0.38,0.42,0.62
			c0.1,0.23,0.15,0.49,0.15,0.75c0,0.27-0.05,0.52-0.15,0.75c-0.1,0.23-0.24,0.44-0.42,0.62c-0.18,0.18-0.38,0.32-0.62,0.42
			c-0.23,0.1-0.49,0.15-0.75,0.15c-0.27,0-0.52-0.05-0.75-0.15c-0.23-0.1-0.44-0.24-0.62-0.42c-0.18-0.18-0.32-0.38-0.42-0.62
			C338.32,38.01,338.27,37.76,338.27,37.5z M341.94,41.24v9.76h-3.44v-9.76H341.94z"/>
		<path d="M348.15,44.12v6.89h-3.44v-6.89h-1.14v-2.87h1.14v-2.93h3.44v2.93h1.96v2.87H348.15z"/>
		<path d="M359.13,41.24h3.46v9.76h-3.46v-1.08c-0.74,0.93-1.73,1.39-2.99,1.39c-0.71,0-1.36-0.13-1.96-0.39
			c-0.6-0.26-1.12-0.62-1.56-1.09c-0.44-0.47-0.79-1.02-1.04-1.66c-0.25-0.63-0.37-1.33-0.37-2.07c0-0.7,0.12-1.36,0.36-1.99
			c0.24-0.63,0.58-1.18,1.01-1.65c0.43-0.47,0.94-0.84,1.54-1.11c0.6-0.27,1.26-0.41,1.98-0.41c1.22,0,2.23,0.43,3.03,1.27V41.24z
			 M354.79,46.1c0,0.32,0.06,0.61,0.17,0.88c0.11,0.27,0.27,0.51,0.47,0.71c0.2,0.2,0.43,0.36,0.7,0.48
			c0.27,0.11,0.57,0.17,0.88,0.17c0.3,0,0.59-0.06,0.87-0.17c0.27-0.11,0.51-0.27,0.7-0.48c0.2-0.2,0.36-0.44,0.48-0.7
			c0.12-0.27,0.18-0.55,0.18-0.86c0-0.3-0.06-0.59-0.18-0.87c-0.12-0.27-0.28-0.51-0.48-0.71c-0.2-0.2-0.43-0.36-0.7-0.48
			c-0.27-0.11-0.56-0.17-0.87-0.17c-0.32,0-0.61,0.06-0.88,0.17c-0.27,0.11-0.51,0.27-0.7,0.48c-0.2,0.2-0.35,0.43-0.47,0.69
			C354.84,45.51,354.79,45.79,354.79,46.1z"/>
		<path d="M372.29,44.4c-0.6-0.41-1.2-0.61-1.81-0.61c-0.33,0-0.64,0.06-0.92,0.17c-0.29,0.11-0.54,0.28-0.75,0.49
			c-0.22,0.21-0.38,0.46-0.5,0.74c-0.12,0.29-0.18,0.61-0.18,0.96c0,0.34,0.06,0.66,0.18,0.94c0.12,0.29,0.29,0.53,0.49,0.74
			c0.21,0.21,0.46,0.37,0.75,0.49c0.29,0.11,0.6,0.17,0.93,0.17c0.65,0,1.25-0.22,1.81-0.67v2.93c-0.85,0.37-1.66,0.55-2.42,0.55
			c-0.71,0-1.39-0.12-2.03-0.36c-0.64-0.24-1.21-0.59-1.69-1.04c-0.49-0.45-0.88-0.99-1.17-1.62c-0.29-0.63-0.44-1.33-0.44-2.1
			c0-0.77,0.14-1.48,0.42-2.12c0.28-0.64,0.66-1.19,1.14-1.66c0.48-0.46,1.06-0.82,1.72-1.08c0.67-0.26,1.38-0.39,2.14-0.39
			c0.84,0,1.61,0.18,2.32,0.53V44.4z M371.25,53.37l-2.93,2.78l-1.56-0.99l2.51-3.06L371.25,53.37z"/>
		<path d="M381.79,41.24h3.46v9.76h-3.46v-1.08c-0.74,0.93-1.73,1.39-2.99,1.39c-0.71,0-1.36-0.13-1.96-0.39
			c-0.6-0.26-1.12-0.62-1.56-1.09c-0.44-0.47-0.79-1.02-1.04-1.66c-0.25-0.63-0.37-1.33-0.37-2.07c0-0.7,0.12-1.36,0.36-1.99
			c0.24-0.63,0.58-1.18,1.01-1.65c0.43-0.47,0.94-0.84,1.54-1.11c0.6-0.27,1.26-0.41,1.98-0.41c1.22,0,2.23,0.43,3.03,1.27V41.24z
			 M376.21,39.72v-0.21c0-0.39,0.05-0.76,0.15-1.1c0.1-0.34,0.25-0.64,0.44-0.88c0.19-0.25,0.41-0.44,0.67-0.59
			c0.25-0.15,0.53-0.22,0.84-0.22c0.14,0,0.37,0.04,0.69,0.12c0.32,0.08,0.73,0.21,1.21,0.39c0.29,0.1,0.54,0.18,0.73,0.24
			c0.2,0.06,0.36,0.09,0.5,0.09c0.23,0,0.38-0.06,0.47-0.17c0.08-0.11,0.17-0.34,0.26-0.67h1.69c-0.11,1.08-0.34,1.85-0.68,2.31
			c-0.34,0.46-0.84,0.69-1.48,0.69c-0.27,0-0.56-0.04-0.87-0.11c-0.31-0.08-0.65-0.18-1.02-0.32L379.03,39
			c-0.15-0.06-0.32-0.1-0.49-0.1c-0.23,0-0.39,0.05-0.48,0.16c-0.09,0.11-0.17,0.33-0.23,0.66H376.21z M377.45,46.1
			c0,0.32,0.06,0.61,0.17,0.88c0.11,0.27,0.27,0.51,0.47,0.71c0.2,0.2,0.43,0.36,0.7,0.48c0.27,0.11,0.57,0.17,0.88,0.17
			c0.3,0,0.59-0.06,0.87-0.17c0.27-0.11,0.51-0.27,0.7-0.48c0.2-0.2,0.36-0.44,0.48-0.7c0.12-0.27,0.18-0.55,0.18-0.86
			c0-0.3-0.06-0.59-0.18-0.87c-0.12-0.27-0.28-0.51-0.48-0.71c-0.2-0.2-0.43-0.36-0.7-0.48c-0.27-0.11-0.56-0.17-0.87-0.17
			c-0.32,0-0.61,0.06-0.88,0.17s-0.51,0.27-0.7,0.48c-0.2,0.2-0.35,0.43-0.47,0.69C377.51,45.51,377.45,45.79,377.45,46.1z"/>
		<path d="M387.21,46.04c0-0.72,0.15-1.4,0.44-2.03c0.29-0.63,0.7-1.17,1.22-1.64c0.52-0.46,1.14-0.83,1.86-1.09
			c0.72-0.27,1.5-0.4,2.35-0.4c0.84,0,1.61,0.13,2.33,0.39c0.72,0.26,1.34,0.62,1.86,1.08c0.53,0.46,0.94,1.02,1.23,1.66
			c0.29,0.64,0.44,1.35,0.44,2.12c0,0.77-0.15,1.48-0.45,2.12c-0.3,0.64-0.71,1.19-1.23,1.66c-0.52,0.46-1.15,0.82-1.87,1.07
			c-0.73,0.25-1.52,0.38-2.37,0.38c-0.84,0-1.61-0.13-2.32-0.38c-0.71-0.25-1.32-0.62-1.84-1.08c-0.51-0.47-0.92-1.03-1.21-1.68
			C387.36,47.56,387.21,46.84,387.21,46.04z M390.84,46.08c0,0.33,0.06,0.63,0.18,0.9c0.12,0.27,0.28,0.51,0.48,0.71
			c0.2,0.2,0.43,0.36,0.7,0.48c0.27,0.11,0.56,0.17,0.87,0.17c0.3,0,0.59-0.06,0.87-0.17c0.27-0.11,0.51-0.27,0.7-0.48
			c0.2-0.2,0.36-0.44,0.48-0.71c0.12-0.27,0.18-0.57,0.18-0.88c0-0.3-0.06-0.59-0.18-0.87c-0.12-0.27-0.28-0.51-0.48-0.71
			c-0.2-0.2-0.43-0.36-0.7-0.48c-0.27-0.11-0.56-0.17-0.87-0.17c-0.3,0-0.59,0.06-0.87,0.17c-0.27,0.11-0.51,0.27-0.7,0.48
			c-0.2,0.2-0.36,0.44-0.48,0.7C390.9,45.49,390.84,45.77,390.84,46.08z"/>
	</g>
</g>
<g>
	<path d="M284.8,18.11c-0.14-0.35-0.35-0.68-0.7-0.98c-0.49-0.4-1-0.56-1.68-0.56c-1.44,0-2.19,0.86-2.19,1.86
		c0,0.47,0.16,1.28,1.68,1.89l1.56,0.63c2.87,1.16,3.66,2.8,3.66,4.57c0,2.96-2.1,4.98-5.01,4.98c-1.79,0-2.87-0.68-3.66-1.56
		c-0.84-0.93-1.21-1.96-1.3-3.03l2.35-0.51c0,0.77,0.28,1.49,0.65,1.98c0.44,0.56,1.09,0.93,2.03,0.93c1.44,0,2.56-1.05,2.56-2.61
		c0-1.58-1.21-2.24-2.24-2.66l-1.49-0.63c-1.28-0.54-3.17-1.61-3.17-3.94c0-2.1,1.63-4.1,4.54-4.1c1.68,0,2.63,0.63,3.12,1.05
		c0.42,0.37,0.86,0.91,1.19,1.56L284.8,18.11z"/>
	<path d="M298.47,27.96c-0.42,0.75-1.02,1.4-1.65,1.79c-0.79,0.51-1.84,0.75-2.89,0.75c-1.3,0-2.38-0.33-3.31-1.26
		c-0.93-0.93-1.44-2.28-1.44-3.75c0-1.51,0.54-2.98,1.56-4.03c0.82-0.82,1.89-1.33,3.28-1.33c1.56,0,2.56,0.68,3.14,1.28
		c1.26,1.3,1.37,3.12,1.37,4.15v0.28h-7.03c0.05,0.7,0.35,1.49,0.84,1.98c0.54,0.54,1.19,0.63,1.75,0.63c0.63,0,1.09-0.14,1.56-0.49
		c0.4-0.3,0.7-0.7,0.91-1.07L298.47,27.96z M296.21,23.98c-0.09-0.54-0.35-1-0.7-1.33c-0.3-0.28-0.79-0.56-1.54-0.56
		c-0.79,0-1.3,0.33-1.61,0.63c-0.33,0.3-0.58,0.77-0.7,1.26H296.21z"/>
	<path d="M308.51,23.39c-1.05-1.02-2.07-1.21-2.77-1.21c-1.07,0-1.75,0.44-2.17,0.86c-0.42,0.42-0.84,1.16-0.84,2.26
		c0,1.14,0.44,1.91,0.89,2.35c0.51,0.49,1.23,0.79,2.07,0.79c0.93,0,2.03-0.37,2.82-1.26v2.54c-0.56,0.35-1.47,0.77-2.98,0.77
		c-1.63,0-2.8-0.47-3.73-1.44c-0.7-0.72-1.4-1.89-1.4-3.68c0-1.84,0.77-3.07,1.49-3.8c0.77-0.77,2-1.44,3.94-1.44
		c0.75,0,1.63,0.12,2.68,0.7V23.39z"/>
	<path d="M310.7,20.39h2.28v0.89c0.26-0.3,0.63-0.63,0.96-0.82c0.44-0.26,0.89-0.33,1.4-0.33c0.56,0,1.16,0.09,1.79,0.47l-0.93,2.07
		c-0.51-0.33-0.93-0.35-1.16-0.35c-0.49,0-0.98,0.07-1.42,0.54c-0.63,0.68-0.63,1.61-0.63,2.26v5.08h-2.28V20.39z"/>
	<path d="M326.49,27.96c-0.42,0.75-1.02,1.4-1.65,1.79c-0.79,0.51-1.84,0.75-2.89,0.75c-1.3,0-2.38-0.33-3.31-1.26
		c-0.93-0.93-1.44-2.28-1.44-3.75c0-1.51,0.54-2.98,1.56-4.03c0.82-0.82,1.89-1.33,3.28-1.33c1.56,0,2.56,0.68,3.14,1.28
		c1.26,1.3,1.37,3.12,1.37,4.15v0.28h-7.03c0.05,0.7,0.35,1.49,0.84,1.98c0.54,0.54,1.19,0.63,1.75,0.63c0.63,0,1.09-0.14,1.56-0.49
		c0.4-0.3,0.7-0.7,0.91-1.07L326.49,27.96z M324.24,23.98c-0.09-0.54-0.35-1-0.7-1.33c-0.3-0.28-0.79-0.56-1.54-0.56
		c-0.79,0-1.3,0.33-1.61,0.63c-0.33,0.3-0.58,0.77-0.7,1.26H324.24z"/>
	<path d="M331.29,22.49v7.71h-2.28v-7.71h-0.96v-2.1h0.96V16.8h2.28v3.59h1.75v2.1H331.29z"/>
	<path d="M341.75,20.39h2.28v9.81h-2.28v-1.02c-1,1.16-2.24,1.33-2.94,1.33c-3.03,0-4.75-2.52-4.75-5.22c0-3.19,2.19-5.15,4.78-5.15
		c0.72,0,1.98,0.19,2.91,1.4V20.39z M336.39,25.33c0,1.7,1.07,3.12,2.73,3.12c1.44,0,2.77-1.05,2.77-3.1c0-2.14-1.33-3.17-2.77-3.17
		C337.47,22.18,336.39,23.58,336.39,25.33z"/>
	<path d="M346.92,20.39h2.28v0.89c0.26-0.3,0.63-0.63,0.96-0.82c0.44-0.26,0.89-0.33,1.4-0.33c0.56,0,1.16,0.09,1.79,0.47
		l-0.93,2.07c-0.51-0.33-0.93-0.35-1.16-0.35c-0.49,0-0.98,0.07-1.42,0.54c-0.63,0.68-0.63,1.61-0.63,2.26v5.08h-2.28V20.39z"/>
	<path d="M355.8,14.87c0.84,0,1.47,0.63,1.47,1.47c0,0.84-0.63,1.47-1.47,1.47c-0.84,0-1.47-0.63-1.47-1.47
		C354.33,15.5,354.96,14.87,355.8,14.87z M356.94,20.39v9.81h-2.28v-9.81H356.94z"/>
	<path d="M367,20.39h2.28v9.81H367v-1.02c-1,1.16-2.24,1.33-2.94,1.33c-3.03,0-4.75-2.52-4.75-5.22c0-3.19,2.19-5.15,4.78-5.15
		c0.72,0,1.98,0.19,2.91,1.4V20.39z M361.64,25.33c0,1.7,1.07,3.12,2.73,3.12c1.44,0,2.77-1.05,2.77-3.1c0-2.14-1.33-3.17-2.77-3.17
		C362.72,22.18,361.64,23.58,361.64,25.33z"/>
	<path d="M384.78,13.22h2.28V30.2h-2.28v-1.02c-1,1.16-2.24,1.33-2.94,1.33c-3.03,0-4.75-2.52-4.75-5.22c0-3.19,2.19-5.15,4.78-5.15
		c0.72,0,1.98,0.19,2.91,1.4V13.22z M379.42,25.33c0,1.7,1.07,3.12,2.73,3.12c1.44,0,2.77-1.05,2.77-3.1c0-2.14-1.33-3.17-2.77-3.17
		C380.49,22.18,379.42,23.58,379.42,25.33z"/>
	<path d="M398.73,27.96c-0.42,0.75-1.02,1.4-1.65,1.79c-0.79,0.51-1.84,0.75-2.89,0.75c-1.3,0-2.38-0.33-3.31-1.26
		c-0.93-0.93-1.44-2.28-1.44-3.75c0-1.51,0.54-2.98,1.56-4.03c0.82-0.82,1.89-1.33,3.28-1.33c1.56,0,2.56,0.68,3.14,1.28
		c1.26,1.3,1.37,3.12,1.37,4.15v0.28h-7.03c0.05,0.7,0.35,1.49,0.84,1.98c0.54,0.54,1.19,0.63,1.75,0.63c0.63,0,1.09-0.14,1.56-0.49
		c0.4-0.3,0.7-0.7,0.91-1.07L398.73,27.96z M396.47,23.98c-0.09-0.54-0.35-1-0.7-1.33c-0.3-0.28-0.79-0.56-1.54-0.56
		c-0.79,0-1.3,0.33-1.61,0.63c-0.33,0.3-0.58,0.77-0.7,1.26H396.47z"/>
</g>
</svg>
