<svg version="1.2" xmlns="http://www.w3.org/2000/svg" viewBox="0 0 1564 122" width="1564" height="122"><style>.a{fill:#f7f7f8}.b{fill:#ed1c24}</style><path class="a" d="m1210.1 30q-2.1-1.7-4.3-2.6-2.1-0.8-4.2-0.8-2.5 0-4.1 1.2-1.6 1.2-1.6 3.2 0 1.3 0.8 2.2 0.8 0.8 2.1 1.5 1.3 0.6 2.9 1.1 1.7 0.5 3.3 1 6.5 2.2 9.5 5.8 3 3.6 3 9.3 0 3.9-1.4 7.1-1.3 3.2-3.8 5.4-2.5 2.3-6.2 3.5-3.6 1.3-8.3 1.3-9.6 0-17.8-5.7l5.6-10.7q3 2.6 5.9 3.9 2.9 1.3 5.7 1.3 3.2 0 4.8-1.5 1.6-1.5 1.6-3.3 0-1.2-0.4-2-0.4-0.9-1.4-1.6-0.9-0.7-2.4-1.3-1.5-0.6-3.7-1.3-2.5-0.8-5-1.8-2.4-1-4.4-2.6-1.9-1.6-3.1-4.1-1.1-2.4-1.1-6.2 0-3.8 1.2-6.8 1.3-3.1 3.5-5.3 2.3-2.2 5.5-3.4 3.3-1.2 7.3-1.2 3.8 0 7.9 1.1 4.1 1 7.9 3z"/><path fill-rule="evenodd" class="a" d="m1252.5 58.9h-18.8l-3.1 8.9h-14l19.3-50.8h14.4l19.3 50.8h-14.1zm-24.1-47.3q0-5 2.3-7.9 2.3-2.9 5.8-2.9 1.4 0 3.2 0.4 1.7 0.5 3.4 1 1.8 0.5 3.2 0.9 1.5 0.4 2.3 0.4 2.2 0 2.9-2.8h6.7q-0.7 6.1-2.9 8.5-2.3 2.4-6.1 2.4-1.9 0-3.7-0.4-1.8-0.4-3.5-1-1.6-0.5-2.9-0.9-1.2-0.4-2.1-0.4-0.7 0-1.3 0.5-0.5 0.5-1 2.2zm20.7 37.2l-6-16.9-5.9 16.9z"/><path fill-rule="evenodd" class="a" d="m1266.5 42.4q0-5.7 2.1-10.5 2.1-4.9 5.8-8.5 3.7-3.7 8.8-5.7 5.2-2.1 11.4-2.1 6.1 0 11.3 2.1 5.1 2 8.9 5.7 3.7 3.6 5.8 8.5 2.1 4.8 2.1 10.5 0 5.6-2.1 10.5-2.1 4.9-5.8 8.5-3.8 3.7-8.9 5.7-5.2 2.1-11.3 2.1-6.2 0-11.4-2.1-5.1-2-8.8-5.7-3.7-3.6-5.8-8.5-2.1-4.9-2.1-10.5zm13.8 0q0 3 1.1 5.6 1.2 2.5 3.1 4.4 2 1.9 4.6 2.9 2.6 1.1 5.5 1.1 2.8 0 5.4-1.1 2.6-1 4.6-2.9 2-1.9 3.1-4.4 1.2-2.6 1.2-5.6 0-3-1.2-5.6-1.1-2.5-3.1-4.4-2-1.9-4.6-3-2.6-1-5.4-1-2.9 0-5.5 1-2.6 1.1-4.6 3-1.9 1.9-3.1 4.4-1.1 2.6-1.1 5.6z"/><path fill-rule="evenodd" class="a" d="m1356.4 67.8h-13.2v-50.8h21q8.6 0 13.1 4.5 4.6 4.4 4.6 12.5 0 8.1-4.6 12.5-4.5 4.4-13.1 4.4h-7.8zm0-27.4h4.4q7.3 0 7.3-6.3 0-6.4-7.3-6.4h-4.4z"/><path fill-rule="evenodd" class="a" d="m1411.9 58.9h-18.8l-3 8.9h-14.1l19.3-50.8h14.4l19.3 50.8h-14zm-3.5-10.1l-6-16.9-5.9 16.9z"/><path class="a" d="m1441.4 17v27.6q0 2.2 0.2 4.6 0.1 2.3 1 4.2 0.8 1.8 2.6 3 1.9 1.2 5.1 1.2 3.3 0 5.1-1.2 1.8-1.2 2.7-3 0.9-1.9 1-4.2 0.2-2.4 0.2-4.6v-27.6h13.1v29.4q0 11.9-5.4 17.3-5.4 5.5-16.7 5.5-11.2 0-16.6-5.5-5.5-5.4-5.5-17.3v-29.4z"/><path class="a" d="m1491.1 17v39.6h15.8v11.2h-29v-50.8z"/><path fill-rule="evenodd" class="a" d="m1507.3 42.4q0-5.7 2.1-10.5 2.1-4.9 5.8-8.5 3.7-3.7 8.9-5.7 5.1-2.1 11.3-2.1 6.1 0 11.3 2.1 5.2 2 8.9 5.7 3.7 3.6 5.8 8.5 2.1 4.8 2.1 10.5 0 5.6-2.1 10.5-2.1 4.9-5.8 8.5-3.7 3.7-8.9 5.7-5.2 2.1-11.3 2.1-6.2 0-11.3-2.1-5.2-2-8.9-5.7-3.7-3.6-5.8-8.5-2.1-4.9-2.1-10.5zm13.8 0q0 3 1.2 5.6 1.1 2.5 3.1 4.4 1.9 1.9 4.5 2.9 2.6 1.1 5.5 1.1 2.9 0 5.5-1.1 2.6-1 4.5-2.9 2-1.9 3.2-4.4 1.1-2.6 1.1-5.6 0-3-1.1-5.6-1.2-2.5-3.2-4.4-1.9-1.9-4.5-3-2.6-1-5.5-1-2.9 0-5.5 1-2.6 1.1-4.5 3-2 1.9-3.1 4.4-1.2 2.6-1.2 5.6z"/><path class="a" d="m1192.4 97.1h11.6c0 4.5-0.9 7.7-3.6 10.1-2.3 2.2-5 2.9-7.9 2.9-4 0-6.8-1.5-8.6-3.4-1.7-1.6-3.3-4.4-3.3-8.1 0-3.6 1.5-6.5 3.4-8.4 1.9-1.9 4.8-3.3 8.7-3.3 2.1 0 4.4 0.5 6.1 1.5 1.8 1.1 3.2 2.9 4 4.6l-5.5 2.3c-0.4-1-1.1-1.8-1.7-2.2-0.9-0.9-2-1.2-3.1-1.2-1.4 0-2.8 0.5-3.8 1.6-1.3 1.3-2 3.4-2 5.2 0 2 0.8 3.7 1.8 4.8 1.1 1.2 2.4 1.7 4.1 1.7 1 0 2.2-0.1 3.3-1 0.5-0.5 1.1-1.3 1.3-2.5h-4.8z"/><path fill-rule="evenodd" class="a" d="m1229.9 107c-2.3 2.2-5.6 3.4-8.9 3.4-3.3 0-6.6-1.2-8.9-3.4-2.4-2.2-3.5-5.4-3.5-8.3 0-3 1.1-6.2 3.5-8.5 2.3-2.2 5.6-3.3 8.9-3.3 3.3 0 6.6 1.1 8.9 3.3 2.4 2.3 3.5 5.5 3.5 8.5 0 2.9-1.1 6.1-3.5 8.3zm-13.5-12.7c-1.2 1.2-1.7 2.9-1.7 4.5 0 1.9 0.9 3.3 1.7 4.1 1.1 1.1 2.6 1.8 4.6 1.8 2 0 3.5-0.7 4.5-1.7 1.1-1.1 1.8-2.6 1.8-4.3 0-1.8-0.7-3.4-1.8-4.4-1.2-1.1-2.9-1.7-4.5-1.7-1.6 0-3.3 0.5-4.6 1.7z"/><path class="a" d="m1241.7 87.4l5.4 13.7 5.4-13.7h6.4l-9.6 22.5h-4.6l-9.4-22.5z"/><path class="a" d="m1276 92.3h-7v3.8h6.6v4.9h-6.6v3.9h7v5h-12.8v-22.5h12.8z"/><path fill-rule="evenodd" class="a" d="m1290.6 87.4c1.7 0 3.9 0.3 5.5 2 1.3 1.3 1.9 3.3 1.9 5 0 2-0.6 3.6-1.8 4.7-0.8 0.9-2 1.4-3.1 1.6l7.1 9.2h-7.3l-5.6-8.7v8.7h-5.8v-22.5zm-3.3 10.1h1.2c0.8 0 2.1-0.3 2.8-0.9 0.4-0.5 0.7-1.2 0.7-1.9 0-0.7-0.2-1.4-0.7-1.9-0.6-0.6-1.6-0.9-2.8-0.9h-1.2z"/><path class="a" d="m1304.1 109.9v-22.5h5.8l10.8 13.7v-13.7h5.8v22.5h-5.8l-10.8-13.8v13.8z"/><path fill-rule="evenodd" class="a" d="m1352 107c-2.3 2.2-5.5 3.4-8.8 3.4-3.4 0-6.6-1.2-8.9-3.4-2.4-2.2-3.5-5.4-3.5-8.3 0-3 1.1-6.2 3.5-8.5 2.3-2.2 5.5-3.3 8.9-3.3 3.3 0 6.5 1.1 8.8 3.3 2.4 2.3 3.6 5.5 3.6 8.5 0 2.9-1.2 6.1-3.6 8.3zm-13.4-12.7c-1.2 1.2-1.8 2.9-1.8 4.5 0 1.9 1 3.3 1.8 4.1 1.1 1.1 2.6 1.8 4.6 1.8 2 0 3.4-0.7 4.5-1.7 1-1.1 1.8-2.6 1.8-4.3 0-1.8-0.8-3.4-1.8-4.4-1.3-1.1-3-1.7-4.5-1.7-1.6 0-3.4 0.5-4.6 1.7z"/><path fill-rule="evenodd" class="a" d="m1370.8 109.9v-22.5h7.7c2.3 0 6 0.3 8.9 3.1 2.7 2.5 3.2 5.8 3.2 8.2 0 3-0.8 5.6-3 7.8-1.7 1.8-4.8 3.4-8.6 3.4zm5.8-5h1.2c1.4 0 3.4-0.1 4.9-1.6 0.8-0.7 1.8-2.1 1.8-4.6 0-2.1-0.7-3.9-1.8-4.9-1.4-1.3-3.2-1.5-4.6-1.5h-1.5z"/><path fill-rule="evenodd" class="a" d="m1416.4 107c-2.3 2.2-5.5 3.4-8.8 3.4-3.4 0-6.6-1.2-8.9-3.4-2.4-2.2-3.5-5.4-3.5-8.3 0-3 1.1-6.2 3.5-8.5 2.3-2.2 5.5-3.3 8.9-3.3 3.3 0 6.5 1.1 8.8 3.3 2.4 2.3 3.6 5.5 3.6 8.5 0 2.9-1.2 6.1-3.6 8.3zm-13.4-12.7c-1.2 1.2-1.8 2.9-1.8 4.5 0 1.9 1 3.3 1.8 4.1 1.1 1.1 2.6 1.8 4.6 1.8 1.9 0 3.4-0.7 4.5-1.7 1-1.1 1.8-2.6 1.8-4.3 0-1.8-0.8-3.4-1.8-4.4-1.3-1.1-3-1.7-4.5-1.7-1.7 0-3.4 0.5-4.6 1.7z"/><path class="a" d="m1445.7 92.3h-7v3.8h6.6v4.9h-6.6v3.9h7v5h-12.8v-22.5h12.8z"/><path class="a" d="m1453.1 103.1c1.3 1.2 3.2 2.3 5.2 2.3 1.2 0 1.9-0.3 2.3-0.7 0.3-0.4 0.5-0.9 0.5-1.5 0-0.4-0.1-0.9-0.6-1.3-0.6-0.5-1.5-0.8-2.9-1.2l-1.5-0.5c-1-0.3-2.4-0.8-3.3-1.8-1.1-1.2-1.2-2.8-1.2-4 0-2.7 1-4.4 2-5.4 1.2-1.1 3-2.1 5.8-2.1 2.2 0 4.8 0.7 6.9 1.8l-2.3 4.6c-1.8-1.4-3.1-1.6-3.8-1.6-0.6 0-1.4 0.2-2 0.7-0.3 0.4-0.5 0.7-0.5 1.2 0 0.4 0 0.7 0.3 1 0.1 0.2 0.5 0.6 1.9 1.1l1.8 0.5c1.4 0.4 2.9 0.9 4.1 2.2 1.1 1.2 1.4 2.5 1.4 4 0 2.1-0.5 4.1-2.1 5.7-1.9 1.9-4.2 2.3-6.6 2.3-1.5 0-2.8-0.2-4.5-0.8-0.3-0.1-1.7-0.6-3.4-1.7z"/><path class="a" d="m1480.4 92.3v17.6h-5.9v-17.6h-4.7v-4.9h15.4v4.9z"/><path fill-rule="evenodd" class="a" d="m1501.8 106.1h-8.2l-1.5 3.8h-6.2l8.6-22.5h6.4l8.5 22.5h-6.3zm-1.5-4.5l-2.5-7.3-2.5 7.3z"/><path fill-rule="evenodd" class="a" d="m1514.3 109.9v-22.5h7.6c2.3 0 6.1 0.3 9 3.1 2.6 2.5 3.1 5.8 3.1 8.2 0 3-0.7 5.6-2.9 7.8-1.8 1.8-4.8 3.4-8.6 3.4zm5.8-5h1.2c1.4 0 3.4-0.1 4.9-1.6 0.7-0.7 1.7-2.1 1.7-4.6 0-2.1-0.6-3.9-1.8-4.9-1.3-1.3-3.2-1.5-4.6-1.5h-1.4z"/><path fill-rule="evenodd" class="a" d="m1560 107c-2.3 2.2-5.6 3.4-8.9 3.4-3.3 0-6.6-1.2-8.9-3.4-2.4-2.2-3.5-5.4-3.5-8.3 0-3 1.1-6.2 3.5-8.5 2.3-2.2 5.6-3.3 8.9-3.3 3.3 0 6.6 1.1 8.9 3.3 2.4 2.3 3.5 5.5 3.5 8.5 0 2.9-1.1 6.1-3.5 8.3zm-13.4-12.7c-1.3 1.2-1.8 2.9-1.8 4.5 0 1.9 0.9 3.3 1.8 4.1 1 1.1 2.6 1.8 4.5 1.8 2 0 3.5-0.7 4.5-1.7 1.1-1.1 1.8-2.6 1.8-4.3 0-1.8-0.7-3.4-1.8-4.4-1.2-1.1-2.9-1.7-4.5-1.7-1.6 0-3.3 0.5-4.5 1.7z"/><path class="b" d="m1130.6 18.5h-23-23-11.4c-6.4 0-11.5 5.2-11.5 11.5v11.5 23 23 23l45.9-23h23c12.7 0 23-10.3 23-23v-23c0-12.7-10.3-23-23-23z"/><path class="a" d="m1027.2 18.5h-23-23c-12.7 0-23 10.3-23 23 0 12.7 10.3 23 23 23h-23v23 23h23 23 23c12.7 0 23-10.3 23-23 0-12.7-10.3-23-23-23h23v-23-23z"/><path fill-rule="evenodd" class="a" d="m0.8 74.5h13.2q3.5 0 6.6 1.4 3.1 1.4 5.4 3.8 2.3 2.3 3.7 5.4 1.3 3.2 1.3 6.6 0 3.4-1.3 6.5-1.3 3.1-3.6 5.5-2.3 2.4-5.4 3.8-3.1 1.4-6.7 1.4h-13.2zm8.9 26.9h2.1q2.3 0 4.1-0.7 1.9-0.8 3.1-2 1.3-1.3 2-3.1 0.6-1.7 0.6-3.8 0-2.1-0.7-3.9-0.7-1.8-1.9-3-1.3-1.3-3.1-2-1.8-0.8-4.1-0.8h-2.1z"/><path fill-rule="evenodd" class="a" d="m43.4 98.6q0 5.3 5 5.4 2.7 0 4.1-2.2h8q-2.5 8-12.1 8-3 0-5.5-0.9-2.5-0.9-4.2-2.5-1.8-1.7-2.7-4-1-2.2-1-5.1 0-2.9 0.9-5.3 0.9-2.3 2.6-4 1.7-1.6 4.1-2.5 2.4-0.9 5.4-0.9 3 0 5.4 0.9 2.4 0.9 4 2.6 1.7 1.7 2.5 4.1 0.9 2.5 0.9 5.5v0.9zm9.7-4.8q-0.4-1.7-1.7-2.8-1.3-1-3.1-1-1.9 0-3.1 1-1.3 1-1.6 2.8z"/><path class="a" d="m81 91.5q-2.2-1.2-4.4-1.2-1.2 0-1.9 0.5-0.7 0.4-0.7 1.2 0 0.4 0.1 0.7 0.1 0.2 0.5 0.5 0.4 0.2 1.2 0.4 0.7 0.2 2 0.4 3.4 0.7 5.1 2.5 1.7 1.7 1.7 4.5 0 2-0.9 3.7-0.8 1.6-2.2 2.7-1.5 1.2-3.6 1.8-2 0.6-4.5 0.6-4.7 0-9.4-2.7l3.1-5.8q3.4 2.3 6.5 2.3 1.2 0 1.9-0.5 0.7-0.5 0.7-1.3 0-0.4-0.1-0.7-0.1-0.3-0.5-0.6-0.3-0.2-1-0.4-0.7-0.2-1.9-0.4-3.8-0.8-5.3-2.4-1.6-1.5-1.6-4.2 0-1.9 0.8-3.5 0.7-1.6 2.1-2.7 1.3-1.1 3.3-1.7 1.9-0.6 4.3-0.6 3.9 0 7.5 1.5z"/><path fill-rule="evenodd" class="a" d="m96.2 98.6q0 5.3 5 5.4 2.7 0 4.1-2.2h8q-2.4 8-12.1 8-3 0-5.4-0.9-2.5-0.9-4.3-2.5-1.7-1.7-2.7-4-0.9-2.2-0.9-5.1 0-2.9 0.9-5.3 0.9-2.3 2.6-4 1.7-1.6 4.1-2.5 2.4-0.9 5.4-0.9 3 0 5.3 0.9 2.4 0.9 4.1 2.6 1.6 1.7 2.5 4.1 0.8 2.5 0.8 5.5v0.9zm9.7-4.8q-0.4-1.7-1.7-2.8-1.2-1-3.1-1-1.9 0-3.1 1-1.2 1-1.5 2.8z"/><path class="a" d="m118.3 85.5h8.3v3q1.7-2.1 3.4-2.8 1.8-0.7 4.1-0.7 2.5 0 4.2 0.8 1.8 0.8 3 2.2 1 1.2 1.4 2.7 0.4 1.5 0.4 3.3v14.9h-8.3v-11.8q0-1.7-0.3-2.8-0.2-1.1-0.8-1.7-0.6-0.6-1.3-0.8-0.7-0.2-1.4-0.2-2.1 0-3.3 1.2-1.1 1.3-1.1 3.6v12.5h-8.3z"/><path class="a" d="m154.4 85.5l5.5 12 5.7-12h9.2l-12.2 23.4h-5.5l-12.1-23.4z"/><path fill-rule="evenodd" class="a" d="m175.6 97q0-2.6 1-4.9 1.1-2.2 3-3.9 1.8-1.7 4.4-2.6 2.6-1 5.7-1 3 0 5.6 1 2.5 0.9 4.4 2.6 1.9 1.6 3 3.9 1 2.3 1 5.1 0 2.8-1 5.1-1.1 2.3-3 4-1.9 1.7-4.5 2.6-2.6 0.9-5.7 0.9-3 0-5.6-0.9-2.5-0.9-4.4-2.6-1.8-1.7-2.9-4.1-1-2.3-1-5.2zm8.7 0.1q0 1.2 0.4 2.2 0.5 0.9 1.2 1.7 0.7 0.7 1.7 1.1 1 0.4 2.1 0.4 1 0 2-0.4 1-0.4 1.7-1.1 0.7-0.8 1.2-1.7 0.4-1 0.4-2.2 0-1.1-0.4-2-0.5-1-1.2-1.8-0.7-0.7-1.7-1.1-1-0.4-2-0.4-1.1 0-2.1 0.4-1 0.4-1.7 1.1-0.7 0.8-1.2 1.7-0.4 1-0.4 2.1z"/><path class="a" d="m216.8 71v37.9h-8.3v-37.9z"/><path class="a" d="m229.4 85.5l5.6 12 5.6-12h9.3l-12.2 23.4h-5.6l-12-23.4z"/><path class="a" d="m252.1 76.5q0-1 0.4-1.8 0.4-0.9 1-1.5 0.7-0.7 1.5-1 0.8-0.4 1.8-0.4 1 0 1.8 0.4 0.9 0.3 1.5 1 0.6 0.6 1 1.5 0.4 0.8 0.4 1.8 0 0.9-0.4 1.8-0.4 0.8-1 1.5-0.6 0.6-1.5 1-0.8 0.3-1.8 0.3-1 0-1.8-0.3-0.8-0.4-1.5-1-0.6-0.7-1-1.5-0.4-0.9-0.4-1.8zm8.9 9v23.4h-8.3v-23.4z"/><path class="a" d="m266.6 85.5h8.3v2.9q3.4-3.3 7.6-3.3 5.2 0 7.9 4.4 2.8-4.4 8-4.4 1.6 0 3.1 0.5 1.5 0.4 2.5 1.5 1.1 1 1.7 2.6 0.6 1.7 0.6 4v15.2h-8.3v-11.5q0-1.8-0.2-3-0.3-1.1-0.7-1.7-0.5-0.7-1.2-0.9-0.6-0.2-1.3-0.2-4 0-4 5.8v11.5h-8.3v-11.5q0-1.8-0.2-3-0.2-1.1-0.7-1.8-0.4-0.7-1.1-1-0.7-0.2-1.6-0.2-0.8 0-1.5 0.2-0.6 0.2-1.2 0.9-0.5 0.7-0.8 1.8-0.3 1.2-0.3 3.1v11.5h-8.3z"/><path fill-rule="evenodd" class="a" d="m319.4 98.6q0 5.3 5.1 5.4 2.7 0 4-2.2h8q-2.4 8-12.1 8-3 0-5.4-0.9-2.5-0.9-4.3-2.5-1.7-1.7-2.7-4-0.9-2.2-0.9-5.1 0-2.9 0.9-5.3 0.9-2.3 2.6-4 1.7-1.6 4.1-2.5 2.4-0.9 5.4-0.9 3 0 5.3 0.9 2.4 0.9 4.1 2.6 1.6 1.7 2.5 4.1 0.8 2.5 0.8 5.5v0.9zm9.7-4.8q-0.4-1.7-1.7-2.8-1.2-1-3.1-1-1.9 0-3.1 1-1.2 1-1.5 2.8z"/><path class="a" d="m341.6 85.5h8.2v3q1.7-2.1 3.5-2.8 1.7-0.7 4-0.7 2.5 0 4.3 0.8 1.7 0.8 2.9 2.2 1.1 1.2 1.4 2.7 0.4 1.5 0.4 3.3v14.9h-8.3v-11.8q0-1.7-0.2-2.8-0.3-1.1-0.9-1.7-0.6-0.6-1.3-0.8-0.7-0.2-1.4-0.2-2.1 0-3.3 1.2-1.1 1.3-1.1 3.6v12.5h-8.2z"/><path class="a" d="m381.1 92.4v16.5h-8.2v-16.5h-2.8v-6.9h2.8v-7.1h8.2v7.1h4.7v6.9z"/><path fill-rule="evenodd" class="a" d="m388.5 97q0-2.6 1-4.9 1.1-2.2 2.9-3.9 1.9-1.7 4.5-2.6 2.6-1 5.6-1 3 0 5.6 1 2.6 0.9 4.5 2.6 1.9 1.6 3 3.9 1 2.3 1 5.1 0 2.8-1.1 5.1-1 2.3-2.9 4-1.9 1.7-4.5 2.6-2.6 0.9-5.7 0.9-3 0-5.6-0.9-2.5-0.9-4.4-2.6-1.8-1.7-2.9-4.1-1-2.3-1-5.2zm8.7 0.1q0 1.2 0.4 2.2 0.5 0.9 1.2 1.7 0.7 0.7 1.7 1.1 0.9 0.4 2 0.4 1.1 0 2.1-0.4 1-0.4 1.7-1.1 0.7-0.8 1.1-1.7 0.5-1 0.5-2.2 0-1.1-0.5-2-0.4-1-1.1-1.8-0.7-0.7-1.7-1.1-1-0.4-2.1-0.4-1.1 0-2 0.4-1 0.4-1.7 1.1-0.7 0.8-1.2 1.7-0.4 1-0.4 2.1z"/><path class="a" d="m446.6 74.5v18.7q0 1.5 0.2 3.1 0.1 1.6 0.6 2.9 0.6 1.2 1.8 2 1.3 0.8 3.5 0.8 2.3 0 3.5-0.8 1.2-0.8 1.8-2 0.6-1.3 0.7-2.9 0.1-1.6 0.1-3.1v-18.7h8.9v19.9q0 8.1-3.7 11.8-3.6 3.7-11.3 3.7-7.6 0-11.3-3.7-3.7-3.7-3.7-11.8v-19.9z"/><path class="a" d="m474.7 85.5h8.2v3.8q1.4-2.1 3.3-3.2 1.9-1.1 4.5-1.1 0.3 0 0.7 0 0.4 0 0.9 0.1v7.9q-1.7-0.8-3.6-0.8-2.9 0-4.3 1.7-1.5 1.7-1.5 5v10h-8.2z"/><path fill-rule="evenodd" class="a" d="m504.2 71v16.8q2.9-3 7.3-3 2.6 0 4.8 0.9 2.2 1 3.7 2.7 1.5 1.7 2.4 3.9 0.9 2.3 0.9 4.8 0 2.6-0.9 4.9-0.9 2.3-2.5 4-1.6 1.7-3.8 2.7-2.2 1-4.7 1-4.6 0-7.2-3.4v2.6h-8.3v-37.9zm10.4 26.3q0-1.1-0.4-2.1-0.4-1-1.1-1.7-0.7-0.7-1.7-1.2-1-0.4-2.1-0.4-1.1 0-2.1 0.4-0.9 0.4-1.6 1.1-0.7 0.8-1.2 1.8-0.4 0.9-0.4 2 0 1.1 0.4 2.1 0.4 0.9 1.1 1.7 0.8 0.7 1.8 1.1 0.9 0.4 2 0.4 1.1 0 2.1-0.4 1-0.4 1.7-1.1 0.7-0.8 1.1-1.7 0.4-1 0.4-2z"/><path fill-rule="evenodd" class="a" d="m546.1 85.5h8.3v23.4h-8.3v-2.6q-2.7 3.4-7.2 3.4-2.6 0-4.7-1-2.2-0.9-3.8-2.6-1.6-1.7-2.5-4-0.9-2.3-0.9-5 0-2.5 0.9-4.7 0.9-2.3 2.4-4 1.6-1.7 3.7-2.7 2.2-0.9 4.8-0.9 4.4 0 7.3 3zm-10.5 11.7q0 1.1 0.5 2.1 0.4 1 1.1 1.7 0.7 0.7 1.7 1.2 0.9 0.4 2.1 0.4 1.1 0 2.1-0.4 1-0.5 1.7-1.2 0.7-0.7 1.1-1.7 0.4-0.9 0.4-2 0-1.1-0.4-2.1-0.4-1-1.1-1.7-0.7-0.8-1.7-1.2-1-0.4-2.1-0.4-1.2 0-2.1 0.4-1 0.4-1.7 1.2-0.7 0.7-1.1 1.6-0.5 1-0.5 2.1z"/><path class="a" d="m560 85.5h8.3v3q1.7-2.1 3.4-2.8 1.7-0.7 4.1-0.7 2.4 0 4.2 0.8 1.8 0.8 3 2.2 1 1.2 1.4 2.7 0.3 1.5 0.3 3.3v14.9h-8.2v-11.8q0-1.7-0.3-2.8-0.2-1.1-0.9-1.7-0.5-0.6-1.2-0.8-0.7-0.2-1.5-0.2-2.1 0-3.2 1.2-1.1 1.3-1.1 3.6v12.5h-8.3z"/><path fill-rule="evenodd" class="a" d="m589.4 97q0-2.6 1.1-4.9 1-2.2 2.9-3.9 1.9-1.7 4.5-2.6 2.6-1 5.6-1 3 0 5.6 1 2.6 0.9 4.5 2.6 1.9 1.6 3 3.9 1 2.3 1 5.1 0 2.8-1.1 5.1-1 2.3-2.9 4-1.9 1.7-4.5 2.6-2.7 0.9-5.7 0.9-3 0-5.6-0.9-2.5-0.9-4.4-2.6-1.9-1.7-2.9-4.1-1.1-2.3-1.1-5.2zm8.8 0.1q0 1.2 0.4 2.2 0.4 0.9 1.2 1.7 0.7 0.7 1.6 1.1 1 0.4 2.1 0.4 1.1 0 2.1-0.4 1-0.4 1.7-1.1 0.7-0.8 1.1-1.7 0.5-1 0.5-2.2 0-1.1-0.5-2-0.4-1-1.1-1.8-0.7-0.7-1.7-1.1-1-0.4-2.1-0.4-1.1 0-2.1 0.4-0.9 0.4-1.6 1.1-0.8 0.8-1.2 1.7-0.4 1-0.4 2.1z"/><path fill-rule="evenodd" class="a" d="m645.4 98.6q0 5.3 5 5.4 2.7 0 4-2.2h8q-2.4 8-12.1 8-2.9 0-5.4-0.9-2.5-0.9-4.2-2.5-1.8-1.7-2.8-4-0.9-2.2-0.9-5.1 0-2.9 0.9-5.3 0.9-2.3 2.6-4 1.7-1.6 4.1-2.5 2.4-0.9 5.4-0.9 3 0 5.4 0.9 2.3 0.9 4 2.6 1.6 1.7 2.5 4.1 0.9 2.5 0.9 5.5v0.9zm9.7-4.8q-0.5-1.7-1.7-2.8-1.3-1-3.1-1-2 0-3.2 1-1.2 1-1.5 2.8z"/><path class="a" d="m692.8 87.8h12.9v-13.3h8.9v34.4h-8.9v-14.2h-12.9v14.2h-9v-34.4h9z"/><path fill-rule="evenodd" class="a" d="m739.2 85.5h8.3v23.4h-8.3v-2.6q-2.7 3.4-7.2 3.4-2.5 0-4.7-1-2.1-0.9-3.7-2.6-1.6-1.7-2.5-4-0.9-2.3-0.9-5 0-2.5 0.8-4.7 0.9-2.3 2.5-4 1.5-1.7 3.7-2.7 2.1-0.9 4.7-0.9 4.4 0 7.3 3zm-10.4 11.7q0 1.1 0.4 2.1 0.4 1 1.1 1.7 0.7 0.7 1.7 1.2 1 0.4 2.1 0.4 1.1 0 2.1-0.4 1-0.5 1.7-1.2 0.7-0.7 1.1-1.7 0.5-0.9 0.5-2 0-1.1-0.5-2.1-0.4-1-1.1-1.7-0.7-0.8-1.7-1.2-1-0.4-2.1-0.4-1.1 0-2.1 0.4-1 0.4-1.7 1.2-0.7 0.7-1.1 1.6-0.4 1-0.4 2.1z"/><path fill-rule="evenodd" class="a" d="m761.4 71v16.8q2.9-3 7.3-3 2.6 0 4.8 0.9 2.2 1 3.7 2.7 1.5 1.7 2.4 3.9 0.9 2.3 0.9 4.8 0 2.6-0.9 4.9-0.9 2.3-2.5 4-1.6 1.7-3.8 2.7-2.2 1-4.7 1-4.5 0-7.2-3.4v2.6h-8.3v-37.9zm10.5 26.3q0-1.1-0.5-2.1-0.4-1-1.1-1.7-0.7-0.7-1.7-1.2-0.9-0.4-2.1-0.4-1.1 0-2 0.4-1 0.4-1.7 1.1-0.7 0.8-1.2 1.8-0.4 0.9-0.4 2 0 1.1 0.4 2.1 0.4 0.9 1.2 1.7 0.7 0.7 1.7 1.1 1 0.4 2.1 0.4 1.1 0 2-0.4 1-0.4 1.7-1.1 0.7-0.8 1.1-1.7 0.5-1 0.5-2z"/><path class="a" d="m784.6 76.5q0-1 0.4-1.8 0.4-0.9 1-1.5 0.6-0.7 1.5-1 0.8-0.4 1.8-0.4 1 0 1.8 0.4 0.8 0.3 1.5 1 0.6 0.6 1 1.5 0.4 0.8 0.4 1.8 0 0.9-0.4 1.8-0.4 0.8-1 1.5-0.7 0.6-1.5 1-0.8 0.3-1.8 0.3-1 0-1.8-0.3-0.9-0.4-1.5-1-0.6-0.7-1-1.5-0.4-0.9-0.4-1.8zm8.9 9v23.4h-8.3v-23.4z"/><path class="a" d="m808.4 92.4v16.5h-8.3v-16.5h-2.8v-6.9h2.8v-7.1h8.3v7.1h4.7v6.9z"/><path fill-rule="evenodd" class="a" d="m834.7 85.5h8.4v23.4h-8.4v-2.6q-2.6 3.4-7.1 3.4-2.6 0-4.8-1-2.1-0.9-3.7-2.6-1.6-1.7-2.5-4-0.9-2.3-0.9-5 0-2.5 0.9-4.7 0.9-2.3 2.4-4 1.6-1.7 3.7-2.7 2.2-0.9 4.8-0.9 4.4 0 7.2 3zm-10.4 11.7q0 1.1 0.4 2.1 0.4 1 1.1 1.7 0.8 0.7 1.7 1.2 1 0.4 2.2 0.4 1.1 0 2-0.4 1-0.5 1.7-1.2 0.7-0.7 1.2-1.7 0.4-0.9 0.4-2 0-1.1-0.4-2.1-0.5-1-1.2-1.7-0.7-0.8-1.7-1.2-0.9-0.4-2-0.4-1.2 0-2.2 0.4-0.9 0.4-1.7 1.2-0.7 0.7-1.1 1.6-0.4 1-0.4 2.1z"/><path class="a" d="m866.4 93.1q-2.2-1.5-4.4-1.5-1.2 0-2.2 0.4-1 0.4-1.8 1.2-0.8 0.7-1.2 1.8-0.4 1-0.4 2.3 0 1.2 0.4 2.2 0.4 1.1 1.2 1.8 0.7 0.8 1.8 1.2 1 0.4 2.2 0.4 2.4 0 4.4-1.6v7q-3.1 1.4-5.8 1.4-2.6 0-4.9-0.9-2.3-0.9-4.1-2.5-1.7-1.6-2.8-3.9-1-2.2-1-5 0-2.8 1-5.1 1-2.3 2.7-4 1.7-1.7 4.1-2.6 2.4-0.9 5.2-0.9 3 0 5.6 1.2zm-2.5 21.6l-7.1 6.6-3.7-2.3 6-7.4z"/><path fill-rule="evenodd" class="a" d="m889.2 85.5h8.3v23.4h-8.3v-2.6q-2.7 3.4-7.2 3.4-2.6 0-4.7-1-2.2-0.9-3.8-2.6-1.6-1.7-2.4-4-0.9-2.3-0.9-5 0-2.5 0.8-4.7 0.9-2.3 2.5-4 1.5-1.7 3.7-2.7 2.1-0.9 4.7-0.9 4.4 0 7.3 3zm-13.4-3.6v-0.5q0-1.5 0.3-2.7 0.4-1.2 1.1-2.1 0.7-0.9 1.6-1.4 0.9-0.6 2-0.6 0.5 0 1.7 0.3 1.1 0.3 2.9 1 1 0.3 1.7 0.5 0.7 0.2 1.3 0.2 0.8 0 1.1-0.4 0.3-0.4 0.6-1.6h4.1q-0.5 3.9-1.7 5.6-1.2 1.7-3.6 1.7-0.9 0-2-0.3-1.2-0.3-2.5-0.8l-1.9-0.7q-0.5-0.2-1.1-0.2-0.9 0-1.2 0.4-0.3 0.4-0.5 1.6zm2.9 15.3q0 1.1 0.4 2.1 0.5 1 1.2 1.7 0.7 0.7 1.7 1.2 0.9 0.4 2.1 0.4 1.1 0 2.1-0.4 0.9-0.5 1.7-1.2 0.7-0.7 1.1-1.7 0.4-0.9 0.4-2 0-1.1-0.4-2.1-0.4-1-1.1-1.7-0.8-0.8-1.7-1.2-1-0.4-2.1-0.4-1.2 0-2.1 0.4-1 0.4-1.7 1.2-0.7 0.7-1.2 1.6-0.4 1-0.4 2.1z"/><path fill-rule="evenodd" class="a" d="m902.2 97q0-2.6 1.1-4.9 1-2.2 2.9-3.9 1.9-1.7 4.4-2.6 2.6-1 5.7-1 3 0 5.6 1 2.6 0.9 4.5 2.6 1.9 1.6 2.9 3.9 1.1 2.3 1.1 5.1 0 2.8-1.1 5.1-1.1 2.3-3 4-1.8 1.7-4.5 2.6-2.6 0.9-5.7 0.9-3 0-5.5-0.9-2.6-0.9-4.4-2.6-1.9-1.7-2.9-4.1-1.1-2.3-1.1-5.2zm8.7 0.1q0 1.2 0.5 2.2 0.4 0.9 1.1 1.7 0.7 0.7 1.7 1.1 1 0.4 2.1 0.4 1.1 0 2.1-0.4 0.9-0.4 1.7-1.1 0.7-0.8 1.1-1.7 0.4-1 0.4-2.2 0-1.1-0.4-2-0.4-1-1.1-1.8-0.8-0.7-1.7-1.1-1-0.4-2.1-0.4-1.1 0-2.1 0.4-1 0.4-1.7 1.1-0.7 0.8-1.1 1.7-0.5 1-0.5 2.1z"/><path class="a" d="m656.2 29.9c-0.4-0.8-0.9-1.6-1.7-2.4-1.2-0.9-2.4-1.3-4-1.3-3.5 0-5.3 2.1-5.3 4.5 0 1.1 0.4 3.1 4 4.5l3.8 1.5c6.9 2.8 8.8 6.7 8.8 11 0 7.1-5.1 12-12.1 12-4.3 0-6.8-1.7-8.8-3.8-2-2.2-2.9-4.7-3.1-7.3l5.7-1.2c0 1.9 0.6 3.6 1.5 4.8 1.1 1.3 2.7 2.2 4.9 2.2 3.5 0 6.2-2.5 6.2-6.3 0-3.8-3-5.3-5.4-6.3l-3.6-1.5c-3.1-1.3-7.6-3.9-7.6-9.5 0-5 3.9-9.9 10.9-9.9 4 0 6.3 1.6 7.5 2.6 1 0.9 2.1 2.1 2.9 3.7z"/><path fill-rule="evenodd" class="a" d="m689 53.6c-1 1.8-2.4 3.3-4 4.3-1.9 1.2-4.4 1.8-6.9 1.8-3.1 0-5.7-0.8-7.9-3.1-2.3-2.2-3.5-5.4-3.5-9 0-3.6 1.3-7.1 3.7-9.6 2-2 4.6-3.2 7.9-3.2 3.8 0 6.2 1.6 7.6 3 3 3.2 3.3 7.5 3.3 10v0.7h-16.9c0.1 1.7 0.8 3.6 2 4.7 1.3 1.3 2.9 1.5 4.2 1.5 1.5 0 2.6-0.3 3.7-1.1 1-0.8 1.7-1.7 2.2-2.6zm-5.4-9.6c-0.2-1.3-0.8-2.4-1.7-3.2-0.7-0.6-1.9-1.3-3.7-1.3-1.9 0-3.1 0.8-3.8 1.5-0.8 0.7-1.4 1.9-1.7 3z"/><path class="a" d="m713.1 42.6c-2.5-2.5-4.9-2.9-6.6-2.9-2.6 0-4.2 1.1-5.2 2.1-1 1-2 2.8-2 5.4 0 2.7 1 4.6 2.1 5.6 1.2 1.2 3 1.9 5 1.9 2.2 0 4.8-0.9 6.7-3v6.1c-1.3 0.9-3.5 1.9-7.1 1.9-3.9 0-6.7-1.2-9-3.5-1.7-1.7-3.3-4.5-3.3-8.8 0-4.5 1.8-7.4 3.5-9.2 1.9-1.8 4.9-3.4 9.5-3.4 1.8 0 3.9 0.2 6.4 1.6z"/><path class="a" d="m718.4 35.4h5.5v2.1c0.6-0.7 1.5-1.5 2.3-2 1-0.6 2.1-0.7 3.3-0.7 1.4 0 2.8 0.2 4.3 1.1l-2.2 5c-1.2-0.8-2.2-0.9-2.8-0.9-1.2 0-2.3 0.2-3.4 1.3-1.5 1.6-1.5 3.9-1.5 5.4v12.2h-5.5z"/><path fill-rule="evenodd" class="a" d="m756.3 53.6c-1 1.8-2.4 3.3-3.9 4.3-1.9 1.2-4.5 1.8-7 1.8-3.1 0-5.7-0.8-7.9-3.1-2.3-2.2-3.5-5.4-3.5-9 0-3.6 1.3-7.1 3.8-9.6 1.9-2 4.5-3.2 7.9-3.2 3.7 0 6.1 1.6 7.5 3 3 3.2 3.3 7.5 3.3 10v0.7h-16.9c0.1 1.7 0.8 3.6 2 4.7 1.3 1.3 2.9 1.5 4.2 1.5 1.5 0 2.7-0.3 3.8-1.1 0.9-0.8 1.6-1.7 2.2-2.6zm-5.5-9.6c-0.2-1.3-0.8-2.4-1.7-3.2-0.7-0.6-1.9-1.3-3.6-1.3-2 0-3.2 0.8-3.9 1.5-0.8 0.7-1.4 1.9-1.7 3z"/><path class="a" d="m767.9 40.4v18.5h-5.5v-18.5h-2.3v-5h2.3v-8.6h5.5v8.6h4.2v5z"/><path fill-rule="evenodd" class="a" d="m793 35.4h5.5v23.5h-5.5v-2.4c-2.4 2.8-5.4 3.2-7.1 3.2-7.2 0-11.4-6.1-11.4-12.6 0-7.6 5.3-12.3 11.5-12.3 1.7 0 4.8 0.4 7 3.3zm-12.9 11.9c0 4.1 2.6 7.5 6.6 7.5 3.4 0 6.6-2.5 6.6-7.5 0-5.1-3.2-7.6-6.6-7.6-4 0-6.6 3.4-6.6 7.6z"/><path class="a" d="m805.4 35.4h5.5v2.1c0.6-0.7 1.5-1.5 2.3-2 1.1-0.6 2.1-0.7 3.4-0.7 1.3 0 2.8 0.2 4.3 1.1l-2.3 5c-1.2-0.8-2.2-0.9-2.8-0.9-1.1 0-2.3 0.2-3.4 1.3-1.5 1.6-1.5 3.9-1.5 5.4v12.2h-5.5z"/><path class="a" d="m826.7 22.1c2.1 0 3.6 1.5 3.6 3.5 0 2.1-1.5 3.6-3.6 3.6-2 0-3.5-1.5-3.5-3.6 0-2 1.5-3.5 3.5-3.5zm2.8 13.3v23.5h-5.5v-23.5z"/><path fill-rule="evenodd" class="a" d="m853.7 35.4h5.4v23.5h-5.4v-2.4c-2.4 2.8-5.4 3.2-7.1 3.2-7.3 0-11.4-6.1-11.4-12.6 0-7.6 5.2-12.3 11.5-12.3 1.7 0 4.7 0.4 7 3.3zm-12.9 11.9c0 4.1 2.6 7.5 6.5 7.5 3.5 0 6.7-2.5 6.7-7.5 0-5.1-3.2-7.6-6.7-7.6-3.9 0-6.5 3.4-6.5 7.6z"/><path fill-rule="evenodd" class="a" d="m896.4 18.1h5.4v40.8h-5.4v-2.4c-2.5 2.8-5.4 3.2-7.1 3.2-7.3 0-11.4-6.1-11.4-12.6 0-7.6 5.2-12.3 11.5-12.3 1.7 0 4.7 0.4 7 3.3zm-12.9 29.1c0 4.1 2.6 7.5 6.5 7.5 3.5 0 6.7-2.5 6.7-7.4 0-5.2-3.2-7.6-6.7-7.6-3.9 0-6.5 3.3-6.5 7.5z"/><path fill-rule="evenodd" class="a" d="m929.9 53.6c-1 1.8-2.5 3.3-4 4.3-1.9 1.2-4.4 1.8-6.9 1.8-3.2 0-5.7-0.8-8-3.1-2.2-2.2-3.5-5.4-3.5-9 0-3.6 1.3-7.1 3.8-9.6 2-2 4.5-3.2 7.9-3.2 3.7 0 6.1 1.6 7.5 3 3.1 3.2 3.3 7.5 3.3 10v0.7h-16.9c0.2 1.7 0.9 3.6 2.1 4.7 1.2 1.3 2.8 1.5 4.2 1.5 1.5 0 2.6-0.3 3.7-1.1 1-0.8 1.7-1.7 2.2-2.6zm-5.4-9.6c-0.3-1.3-0.9-2.4-1.7-3.2-0.7-0.6-1.9-1.3-3.7-1.3-1.9 0-3.1 0.8-3.9 1.5-0.8 0.7-1.4 1.9-1.7 3z"/></svg>