<?xml version="1.0" encoding="utf-8"?>
<!-- Generator: Adobe Illustrator 25.0.1, SVG Export Plug-In . SVG Version: 6.00 Build 0)  -->
<svg version="1.1" id="Camada_1" xmlns="http://www.w3.org/2000/svg" xmlns:xlink="http://www.w3.org/1999/xlink" x="0px" y="0px"
	 viewBox="0 0 253 245" style="enable-background:new 0 0 253 245;" xml:space="preserve">
<style type="text/css">
	.st0{fill:#E3151E;}
	.st1{fill:#FFFFFF;}
</style>
<g>
	<circle cx="126.5" cy="122.5" r="111.88"/>
	<g>
		<g>
			<path class="st0" d="M190.24,62.83L190.24,62.83h-19.61h-19.61h-9.81c-5.42,0-9.81,4.39-9.81,9.81v0v9.81v19.61v19.61v19.61
				l39.22-19.61h19.61l0,0c10.83,0,19.61-8.78,19.61-19.61l0,0V82.44v0C209.85,71.61,201.07,62.83,190.24,62.83z"/>
			<g>
				<path class="st1" d="M101.99,62.83H82.37H62.76l0,0c-10.83,0-19.61,8.78-19.61,19.61v0l0,0c0,10.83,8.78,19.61,19.61,19.61
					H43.15v19.61v19.61h19.61h19.61h19.61l0,0c10.83,0,19.61-8.78,19.61-19.61l0,0l0,0c0-10.83-8.78-19.61-19.61-19.61h19.61V82.44
					V62.83H101.99z"/>
			</g>
		</g>
		<g>
			<path class="st1" d="M143.44,177.76c0-0.55,0.1-1.07,0.31-1.56c0.21-0.49,0.49-0.92,0.86-1.28c0.36-0.36,0.79-0.65,1.28-0.86
				c0.49-0.21,1.01-0.31,1.56-0.31c0.55,0,1.07,0.1,1.56,0.31c0.49,0.21,0.92,0.49,1.28,0.86c0.36,0.37,0.65,0.79,0.86,1.28
				c0.21,0.49,0.31,1.01,0.31,1.56c0,0.55-0.1,1.07-0.31,1.56c-0.21,0.49-0.49,0.92-0.86,1.28c-0.37,0.37-0.79,0.65-1.28,0.86
				c-0.49,0.21-1.01,0.31-1.56,0.31c-0.55,0-1.07-0.1-1.56-0.31c-0.49-0.21-0.92-0.49-1.28-0.86c-0.37-0.36-0.65-0.79-0.86-1.28
				C143.55,178.83,143.44,178.31,143.44,177.76z"/>
			<path class="st1" d="M59.45,163.91h15.98c0,1.64-0.07,3.14-0.21,4.48c-0.14,1.34-0.41,2.59-0.82,3.74
				c-0.58,1.62-1.36,3.05-2.34,4.29c-0.99,1.25-2.14,2.29-3.47,3.12c-1.33,0.84-2.79,1.47-4.38,1.91c-1.59,0.44-3.26,0.66-5.01,0.66
				c-2.41,0-4.61-0.4-6.59-1.19c-1.99-0.79-3.69-1.91-5.12-3.35c-1.42-1.44-2.53-3.16-3.33-5.18c-0.79-2.01-1.19-4.24-1.19-6.68
				c0-2.41,0.39-4.62,1.17-6.64c0.78-2.01,1.89-3.73,3.33-5.16c1.44-1.42,3.17-2.53,5.2-3.33c2.03-0.79,4.29-1.19,6.78-1.19
				c3.23,0,6.07,0.7,8.51,2.1c2.44,1.4,4.37,3.56,5.79,6.49l-7.64,3.16c-0.71-1.7-1.64-2.92-2.77-3.66
				c-1.14-0.74-2.43-1.11-3.88-1.11c-1.21,0-2.3,0.23-3.29,0.68c-0.99,0.45-1.83,1.1-2.53,1.93c-0.7,0.84-1.25,1.84-1.64,3.02
				c-0.4,1.18-0.6,2.49-0.6,3.94c0,1.31,0.17,2.53,0.51,3.66c0.34,1.12,0.86,2.1,1.54,2.92c0.68,0.82,1.53,1.46,2.55,1.91
				c1.01,0.45,2.19,0.68,3.53,0.68c0.79,0,1.56-0.09,2.3-0.27c0.74-0.18,1.4-0.47,1.99-0.86c0.59-0.4,1.07-0.91,1.46-1.54
				c0.38-0.63,0.64-1.4,0.78-2.3h-6.62V163.91z"/>
			<path class="st1" d="M79.46,165.63c0-2.33,0.43-4.49,1.29-6.5c0.86-2.01,2.05-3.76,3.57-5.26c1.52-1.5,3.34-2.67,5.46-3.51
				c2.12-0.84,4.45-1.27,7-1.27c2.52,0,4.85,0.42,6.98,1.27c2.13,0.85,3.97,2.02,5.51,3.51c1.54,1.5,2.73,3.25,3.59,5.26
				c0.86,2.01,1.29,4.18,1.29,6.5c0,2.33-0.43,4.49-1.29,6.5c-0.86,2.01-2.06,3.76-3.59,5.26c-1.54,1.5-3.37,2.67-5.51,3.51
				c-2.13,0.84-4.46,1.27-6.98,1.27c-2.55,0-4.88-0.42-7-1.27c-2.12-0.84-3.94-2.02-5.46-3.51c-1.52-1.5-2.71-3.25-3.57-5.26
				C79.89,170.13,79.46,167.96,79.46,165.63z M87.98,165.63c0,1.25,0.24,2.4,0.71,3.45c0.47,1.05,1.11,1.97,1.91,2.74
				c0.8,0.78,1.74,1.38,2.8,1.81c1.07,0.43,2.19,0.64,3.39,0.64c1.19,0,2.32-0.21,3.39-0.64c1.07-0.43,2.01-1.03,2.83-1.81
				c0.82-0.78,1.46-1.69,1.93-2.74c0.47-1.05,0.71-2.2,0.71-3.45s-0.24-2.4-0.71-3.45c-0.47-1.05-1.12-1.97-1.93-2.74
				c-0.82-0.78-1.76-1.38-2.83-1.81c-1.07-0.43-2.2-0.64-3.39-0.64c-1.19,0-2.32,0.21-3.39,0.64c-1.07,0.43-2,1.03-2.8,1.81
				c-0.8,0.78-1.44,1.69-1.91,2.74C88.21,163.24,87.98,164.39,87.98,165.63z"/>
			<path class="st1" d="M123.22,149.91l7.62,19.22l7.66-19.22h8.92l-13.32,31.57h-6.53l-13.27-31.57H123.22z"/>
			<path class="st1" d="M155.97,150.07h12.17c2.89,0,5.08,0.69,6.58,2.08c1.5,1.39,2.25,3.39,2.25,6c0,1.58-0.29,2.9-0.85,3.94
				c-0.57,1.04-1.44,1.92-2.6,2.65c1.17,0.22,2.16,0.56,2.98,1.02c0.82,0.46,1.49,1.02,2,1.69c0.51,0.67,0.88,1.42,1.1,2.25
				c0.22,0.83,0.33,1.72,0.33,2.67c0,1.47-0.26,2.78-0.77,3.92c-0.51,1.14-1.24,2.1-2.17,2.87c-0.93,0.78-2.06,1.36-3.4,1.75
				c-1.33,0.39-2.83,0.58-4.5,0.58h-13.12V150.07z M164.14,162.4h1.5c2.56,0,3.83-1.01,3.83-3.04c0-2.03-1.28-3.04-3.83-3.04h-1.5
				V162.4z M164.14,175.15h1.79c2.06,0,3.53-0.26,4.42-0.79c0.89-0.53,1.33-1.38,1.33-2.54c0-1.17-0.44-2.01-1.33-2.54
				c-0.89-0.53-2.36-0.79-4.42-0.79h-1.79V175.15z"/>
			<path class="st1" d="M210.02,181.48h-10.18l-7.8-12.09v12.09h-8.17v-31.44h12.72c1.75,0,3.28,0.26,4.59,0.77
				c1.31,0.51,2.38,1.22,3.23,2.11c0.85,0.89,1.49,1.92,1.92,3.09c0.43,1.17,0.65,2.42,0.65,3.75c0,2.39-0.58,4.33-1.73,5.82
				c-1.15,1.49-2.86,2.5-5.11,3.02L210.02,181.48z M192.05,164.09h1.54c1.61,0,2.85-0.33,3.71-1c0.86-0.67,1.29-1.63,1.29-2.88
				c0-1.25-0.43-2.21-1.29-2.88c-0.86-0.67-2.1-1-3.71-1h-1.54V164.09z"/>
		</g>
	</g>
</g>
</svg>
